<?xml version="1.0" encoding="UTF-8"?>
<!DOCTYPE svg PUBLIC "-//W3C//DTD SVG 1.1//EN" "http://www.w3.org/Graphics/SVG/1.1/DTD/svg11.dtd">
<!-- Creator: CorelDRAW -->
<svg xmlns="http://www.w3.org/2000/svg" xml:space="preserve" width="420px" height="417px" version="1.1" style="shape-rendering:geometricPrecision; text-rendering:geometricPrecision; image-rendering:optimizeQuality; fill-rule:evenodd; clip-rule:evenodd"
viewBox="0 0 107.05 106.4"
 xmlns:xlink="http://www.w3.org/1999/xlink"
 xmlns:xodm="http://www.corel.com/coreldraw/odm/2003">
 <defs>
  <style type="text/css">
   <![CDATA[
    .fil2 {fill:#FF404D}
    .fil1 {fill:#FEFEFE;fill-rule:nonzero}
    .fil0 {fill:#FF404D;fill-rule:nonzero}
   ]]>
  </style>
 </defs>
 <g id="__x0023_Layer_x0020_2">
  <metadata id="CorelCorpID_0Corel-Layer"/>
  <g id="_2337716004896">
   <g>
    <path class="fil0" d="M45.7 102.36c1.11,0.17 1.86,1.22 1.69,2.33 -0.18,1.1 -1.22,1.86 -2.33,1.68 -12.98,-2.08 -24.24,-8.71 -32.26,-18.12 -8.02,-9.41 -12.8,-21.58 -12.8,-34.72 0,-14.78 5.99,-28.17 15.68,-37.85 9.68,-9.69 23.07,-15.68 37.85,-15.68 9.36,0 18.4,2.46 26.31,6.93 7.91,4.46 14.69,10.93 19.52,18.96 0.58,0.96 0.27,2.21 -0.69,2.79 -0.96,0.58 -2.21,0.27 -2.8,-0.69 -4.48,-7.43 -10.73,-13.41 -18.02,-17.53 -7.29,-4.12 -15.64,-6.38 -24.32,-6.38 -13.66,0 -26.02,5.53 -34.97,14.48 -8.95,8.95 -14.48,21.31 -14.48,34.97 0,12.15 4.41,23.39 11.81,32.08 7.41,8.69 17.82,14.83 29.81,16.75z"/>
    <path class="fil0" d="M102.98 53.68c0,-1.13 0.91,-2.04 2.04,-2.04 1.12,0 2.03,0.91 2.03,2.04 -0.04,10.95 -3.4,21.33 -9.29,29.99 -5.9,8.65 -14.33,15.58 -24.51,19.61 -1.04,0.41 -2.22,-0.1 -2.64,-1.14 -0.41,-1.04 0.1,-2.22 1.14,-2.64 9.4,-3.72 17.19,-10.12 22.65,-18.13 5.45,-8 8.56,-17.59 8.58,-27.69z"/>
   </g>
   <path class="fil1" d="M52.24 9.27c12.14,0 23.13,4.92 31.09,12.87 7.95,7.96 12.88,18.95 12.88,31.1 0,12.14 -4.93,23.13 -12.88,31.09 -7.96,7.95 -18.95,12.87 -31.09,12.87 -12.14,0 -23.14,-4.92 -31.09,-12.87 -7.96,-7.96 -12.88,-18.95 -12.88,-31.09 0,-12.15 4.92,-23.14 12.88,-31.1 7.95,-7.95 18.95,-12.87 31.09,-12.87zm28.2 15.76c-7.21,-7.22 -17.19,-11.69 -28.2,-11.69 -11.02,0 -20.99,4.47 -28.21,11.69 -7.22,7.22 -11.68,17.19 -11.68,28.21 0,11.01 4.46,20.98 11.68,28.2 7.22,7.22 17.19,11.69 28.21,11.69 11.01,0 20.99,-4.47 28.2,-11.69 7.22,-7.22 11.69,-17.19 11.69,-28.2 0,-11.02 -4.47,-20.99 -11.69,-28.21z"/>
   <path class="fil2" d="M53.44 18.94c19.03,0 34.46,15.43 34.46,34.46 0,19.03 -15.43,34.46 -34.46,34.46 -19.04,0 -34.47,-15.43 -34.47,-34.46 0,-19.03 15.43,-34.46 34.47,-34.46z"/>
   <path class="fil1" d="M54.96 30.34l11.15 19.32 0 0 11.17 19.34c0.56,0.97 0.23,2.22 -0.74,2.78 -0.32,0.19 -0.67,0.27 -1.02,0.27l0 0.01 -44.67 0c-1.13,0 -2.04,-0.91 -2.04,-2.04 0,-0.42 0.13,-0.82 0.35,-1.14l11.1 -19.22 0.06 -0.11 11.11 -19.23c0.55,-0.97 1.79,-1.3 2.77,-0.75 0.33,0.19 0.58,0.46 0.76,0.77zm7.63 21.35l-9.4 -16.3 -9.35 16.19 -0.06 0.12 -9.4 16.28 37.61 0 -9.4 -16.28 0.01 -0.01 -0.01 0z"/>
   <path class="fil1" d="M54.96 43.93l4.87 8.44 0 0 4.89 8.46c0.56,0.97 0.23,2.22 -0.74,2.78 -0.33,0.18 -0.68,0.27 -1.02,0.27l0 0.01 -19.55 0c-1.12,0 -2.03,-0.92 -2.03,-2.04 0,-0.43 0.12,-0.82 0.35,-1.15l4.81 -8.33 0.07 -0.11 4.82 -8.35c0.55,-0.97 1.79,-1.3 2.77,-0.75 0.33,0.19 0.58,0.46 0.76,0.77zm1.35 10.47l-3.12 -5.41 -3.07 5.3 -0.06 0.12 -3.12 5.4 12.49 0 -3.12 -5.4 0 -0.01 0 0z"/>
  </g>
 </g>
</svg>
