<?xml version="1.0" encoding="UTF-8"?>
<!DOCTYPE svg PUBLIC "-//W3C//DTD SVG 1.1//EN" "http://www.w3.org/Graphics/SVG/1.1/DTD/svg11.dtd">
<!-- Creator: CorelDRAW -->
<svg xmlns="http://www.w3.org/2000/svg" xml:space="preserve" width="301px" height="301px" version="1.1" style="shape-rendering:geometricPrecision; text-rendering:geometricPrecision; image-rendering:optimizeQuality; fill-rule:evenodd; clip-rule:evenodd"
viewBox="0 0 31.01 31.01"
 xmlns:xlink="http://www.w3.org/1999/xlink"
 xmlns:xodm="http://www.corel.com/coreldraw/odm/2003">
 <defs>
  <style type="text/css">
   <![CDATA[
    .str0 {stroke:#FC9D27;stroke-width:0.41;stroke-miterlimit:22.9256}
    .fil1 {fill:none}
    .fil0 {fill:#FC9D27}
   ]]>
  </style>
 </defs>
 <g id="Слой_x0020_1">
  <metadata id="CorelCorpID_0Corel-Layer"/>
  <path class="fil0" d="M14.79 21.91c-0.01,0.02 -0.97,0.77 -1.13,0.85 -0.53,0.27 -1.05,-0.25 -0.82,-0.83 0.05,-0.11 0.88,-0.83 1.07,-0.92 0.68,-0.31 1.14,0.46 0.88,0.9zm-1.28 -1.21l-1.3 1.1c-0.79,0.56 -1.38,-0.2 -1.04,-0.71 0.17,-0.25 1.01,-0.88 1.3,-1.1 0.92,-0.69 1.31,0.38 1.04,0.71zm-1.13 -1.28c-0.03,0.06 -1.21,1.03 -1.43,1.2 -0.22,0.18 -0.48,0.44 -0.92,0.32 -0.3,-0.09 -0.5,-0.53 -0.29,-0.87 0.16,-0.28 1.12,-0.99 1.41,-1.23 0.23,-0.18 0.5,-0.46 0.92,-0.28 0.28,0.13 0.47,0.57 0.31,0.86zm-1.82 -0.72c0,0.01 -0.45,0.41 -0.5,0.45 -1.52,1.26 -1.72,0.06 -1.51,-0.35 0.04,-0.09 0.93,-0.82 1.14,-0.93 0.62,-0.35 1.14,0.38 0.87,0.83zm2.91 -4.07c0.07,-0.47 1.03,-0.77 1.45,-1 1.63,-0.9 1.25,-0.8 3.57,0 0.83,0.28 1.09,-0.22 1.92,-0.36 0.25,0.69 2.2,3.33 2.34,4 -0.45,0.51 -0.9,0.82 -1.2,1.12l-1.21 -1.01c-0.42,-0.34 -0.74,-0.62 -1.16,-0.97 -3.72,-3.1 -1.75,-1.62 -4,-1.54 -0.62,0.02 -1.34,0.09 -1.71,-0.24zm1.13 0.68c0.67,0 1.06,0.02 1.7,-0.23 0.5,-0.2 0.62,0 0.9,0.25l3.16 2.61c0.51,0.41 1.29,0.84 0.62,1.62 -0.66,0.07 -0.82,-0.13 -1.23,-0.43 -0.39,-0.29 -2.73,-2.04 -3.01,-1.97 -0.01,0.01 -0.39,0.07 0.14,0.46 0.63,0.48 3.19,2.19 3.28,2.53 0.01,0.58 -0.38,0.97 -0.9,0.7l-2.18 -1.52c-0.48,-0.36 -0.87,-0.72 -1.2,-0.62 -0.07,0.4 1.01,1.04 1.55,1.41 0.32,0.23 0.62,0.45 0.91,0.66 0.41,0.31 0.54,0.44 0.4,1.06 -0.5,0.69 -2.2,-0.81 -2.74,-1.19 -0.29,-0.21 -0.58,-0.5 -0.98,-0.49 -0.01,0.48 0.58,0.76 0.9,0.98 0.25,0.18 0.97,0.66 1.12,0.86 0.27,0.36 0.2,1.84 -1.91,0.18 0.22,-1.24 0.05,-1.43 -1.09,-1.71 -0.06,-0.38 -0.09,-0.6 -0.33,-0.83 -0.22,-0.2 -0.43,-0.23 -0.6,-0.31l-0.16 -0.1c-0.33,-0.2 0,-0.64 -0.63,-1 -0.54,-0.31 -0.85,-0.04 -1.29,0.1 -0.51,-2.05 -2.26,-0.27 -2.54,-0.17 -0.18,-0.22 -0.28,-0.25 -0.45,-0.43 0.12,-0.51 2.12,-3.66 2.54,-4.33l4.25 -0.26c-0.33,0.41 -1.33,0.54 -1.66,1.05 -0.57,0.88 0.7,1.12 1.43,1.12zm-7.25 2.53c-0.18,-0.05 -2.26,-1.02 -2.33,-1.31l0 -7.99c0.4,0.14 4.96,3.88 5.41,4.08 -0.04,0.27 -2.58,4.62 -3.08,5.22zm13.29 -5.11c0.37,-0.45 5.05,-4.1 5.38,-4.11l0.02 7.98c-0.14,0.05 -0.01,0.1 -0.55,0.35 -0.56,0.26 -1.41,0.79 -1.83,0.91 -0.4,-0.9 -2.81,-4.48 -3.02,-5.13zm5.83 3.88l0 -8.09 -0.07 -0.67c-0.41,0.05 -0.61,0.28 -0.87,0.49 -0.73,0.58 -5.19,3.94 -5.38,4.27 -0.15,0.27 0.2,0.21 -0.75,0.56 -1.1,0.4 -2.11,-0.8 -3.37,-0.57 -1.38,0.25 -1.07,0.06 -2.5,0.2 -0.91,0.09 -1.69,0.15 -2.63,0.16 0.07,-0.49 -0.08,-0.53 -0.43,-0.79l-4.08 -3.17c-0.29,-0.2 -0.56,-0.41 -0.81,-0.59 -0.29,-0.22 -0.53,-0.54 -0.93,-0.52 -0.11,0.97 -0.12,8.09 0,9.03 0.52,0.25 1.05,0.56 1.56,0.83 0.25,0.14 0.48,0.26 0.76,0.4 0.54,0.27 0.39,0.24 0.79,-0.03l0.44 0.29c-0.18,1.12 -0.23,1.58 1.01,1.78 0.13,1.07 0.36,1.12 1.38,1.2 0.29,0.83 0.6,1.26 1.71,0.92 0.25,0.4 0.33,0.93 1.07,0.96 0.52,0.01 1.04,-0.54 1.4,-0.76 0.69,0.29 1.63,1.37 2.44,0.65 0.32,-0.29 0.25,-0.33 0.44,-0.77 1.86,0.13 1.19,-0.51 1.69,-0.97 0.18,-0.15 0.69,-0.15 0.94,-0.37 0.32,-0.27 0.27,-0.48 0.33,-0.98 1.19,-0.21 0.96,-0.89 1.15,-1.25 0.07,-0.13 1.12,-1.04 1.35,-1.16 0.34,0.84 0.42,0.87 1.99,-0.03 0.75,-0.44 1.15,-0.45 1.37,-1.02z"/>
  <circle class="fil1 str0" cx="15.5" cy="15.5" r="15.3"/>
 </g>
</svg>
