<?xml version="1.0" encoding="UTF-8"?>
<!DOCTYPE svg PUBLIC "-//W3C//DTD SVG 1.1//EN" "http://www.w3.org/Graphics/SVG/1.1/DTD/svg11.dtd">
<!-- Creator: CorelDRAW -->
<svg xmlns="http://www.w3.org/2000/svg" xml:space="preserve" width="301px" height="301px" version="1.1" style="shape-rendering:geometricPrecision; text-rendering:geometricPrecision; image-rendering:optimizeQuality; fill-rule:evenodd; clip-rule:evenodd"
viewBox="0 0 24.94 24.94"
 xmlns:xlink="http://www.w3.org/1999/xlink"
 xmlns:xodm="http://www.corel.com/coreldraw/odm/2003">
 <defs>
  <style type="text/css">
   <![CDATA[
    .str0 {stroke:#FC9D27;stroke-width:0.33;stroke-miterlimit:22.9256}
    .fil1 {fill:none}
    .fil0 {fill:none;fill-rule:nonzero}
   ]]>
  </style>
 </defs>
 <g id="Слой_x0020_1">
  <metadata id="CorelCorpID_0Corel-Layer"/>
  <path class="fil0 str0" d="M18.9 6.15l0.3 0.51c-1.92,1.36 -3.7,3.08 -5.34,5.15 -1.63,2.08 -2.82,4.12 -3.54,6.11l-0.43 0.28c-0.38,0.24 -0.7,0.49 -0.97,0.73 -0.04,-0.23 -0.17,-0.62 -0.38,-1.14l-0.23 -0.56c-0.49,-1.21 -0.9,-2.06 -1.24,-2.54 -0.34,-0.48 -0.7,-0.74 -1.09,-0.78 0.53,-0.49 0.99,-0.73 1.38,-0.73 0.54,0 1.14,0.73 1.79,2.19l0.35 0.79c1.16,-2.08 2.56,-3.99 4.2,-5.74 1.64,-1.75 3.37,-3.17 5.2,-4.27z"/>
  <path class="fil1 str0" d="M12.47 0.17c6.79,0 12.3,5.5 12.3,12.3 0,6.79 -5.51,12.3 -12.3,12.3 -6.8,0 -12.3,-5.51 -12.3,-12.3 0,-6.8 5.5,-12.3 12.3,-12.3z"/>
 </g>
</svg>
