<?xml version="1.0" encoding="UTF-8"?>
<!DOCTYPE svg PUBLIC "-//W3C//DTD SVG 1.1//EN" "http://www.w3.org/Graphics/SVG/1.1/DTD/svg11.dtd">
<!-- Creator: CorelDRAW -->
<svg xmlns="http://www.w3.org/2000/svg" xml:space="preserve" width="301px" height="301px" version="1.1" style="shape-rendering:geometricPrecision; text-rendering:geometricPrecision; image-rendering:optimizeQuality; fill-rule:evenodd; clip-rule:evenodd"
viewBox="0 0 40.27 40.27"
 xmlns:xlink="http://www.w3.org/1999/xlink"
 xmlns:xodm="http://www.corel.com/coreldraw/odm/2003">
 <defs>
  <style type="text/css">
   <![CDATA[
    .str0 {stroke:#FC9D27;stroke-width:0.54;stroke-miterlimit:22.9256}
    .fil1 {fill:none}
    .fil0 {fill:#FC9D27;fill-rule:nonzero}
   ]]>
  </style>
 </defs>
 <g id="Слой_x0020_1">
  <metadata id="CorelCorpID_0Corel-Layer"/>
  <path class="fil0" d="M26.78 27.58l-2.58 0 0 2.59 -14.11 0 0 -14.75 2.56 0 0 -2.59 2.58 0 0 -2.55 14.11 0 0 14.75 -2.56 0 0 2.55zm-10.91 -16.66l0 1.91 10.91 0 0 11.56 1.92 0 0 -13.47 -12.83 0zm-2.59 2.55l0 1.95 10.92 0 0 11.52 1.94 0 0 -13.47 -12.86 0zm10.28 2.58l-12.83 0 0 13.48 12.83 0 0 -13.48zm-10.91 10.89l0 -0.64 8.97 0 0 0.64 -8.97 0zm0 -2.55l0 -0.64 8.97 0 0 0.64 -8.97 0zm0 -2.56l0 -0.64 8.97 0 0 0.64 -8.97 0zm0 -2.58l0 -0.64 8.97 0 0 0.64 -8.97 0z"/>
  <path class="fil1 str0" d="M20.13 0.27c10.98,0 19.87,8.89 19.87,19.86 0,10.98 -8.89,19.87 -19.87,19.87 -10.97,0 -19.86,-8.89 -19.86,-19.87 0,-10.97 8.89,-19.86 19.86,-19.86z"/>
 </g>
</svg>
