<?xml version="1.0" encoding="UTF-8"?>
<!DOCTYPE svg PUBLIC "-//W3C//DTD SVG 1.1//EN" "http://www.w3.org/Graphics/SVG/1.1/DTD/svg11.dtd">
<!-- Creator: CorelDRAW -->
<svg xmlns="http://www.w3.org/2000/svg" xml:space="preserve" width="301px" height="301px" version="1.1" style="shape-rendering:geometricPrecision; text-rendering:geometricPrecision; image-rendering:optimizeQuality; fill-rule:evenodd; clip-rule:evenodd"
viewBox="0 0 57.36 57.36"
 xmlns:xlink="http://www.w3.org/1999/xlink"
 xmlns:xodm="http://www.corel.com/coreldraw/odm/2003">
 <defs>
  <style type="text/css">
   <![CDATA[
    .str0 {stroke:#FC9D27;stroke-width:0.76;stroke-miterlimit:22.9256}
    .fil0 {fill:none}
    .fil1 {fill:#FC9D27}
   ]]>
  </style>
 </defs>
 <g id="Слой_x0020_1">
  <metadata id="CorelCorpID_0Corel-Layer"/>
  <path class="fil0 str0" d="M28.68 0.38c15.63,0 28.29,12.67 28.29,28.3 0,15.63 -12.66,28.29 -28.29,28.29 -15.63,0 -28.3,-12.66 -28.3,-28.29 0,-15.63 12.67,-28.3 28.3,-28.3z"/>
  <g id="_2791945058880">
   <path class="fil1" d="M33.63 33.25c1.36,0.29 3.07,0.97 4.42,1.42 1.78,0.6 2.44,1.01 3.37,2.2 1.09,1.38 2.04,7.14 2.09,9.06 -1.26,0 -3.08,0.25 -4.2,-0.09l-0.54 -5.48 -1.2 0.12 0.48 5.45 -6.7 -0.01c-0.29,-1.55 -0.46,-3.16 -0.69,-4.69 -0.26,-1.67 -0.83,-3.13 0.31,-4.13 0.44,0.33 0.75,0.95 1.39,1.46l1.27 -5.31zm-20.44 12.69c0.07,-1.45 0.52,-3.5 0.77,-4.98 0.61,-3.59 1.21,-5.14 4.83,-6.33 1.31,-0.43 2.92,-1.08 4.25,-1.37l1.3 5.3 0.8 -0.79c0.27,-0.33 0.19,-0.36 0.6,-0.67 1.16,1.01 0.55,2.58 0.29,4.28 -0.22,1.48 -0.39,3.04 -0.67,4.55l-6.74 0 0.46 -5.46 -1.12 -0.1 -0.57 5.55 -4.2 0.02zm13.44 -9.93c1.92,-2.37 1.53,-2.37 3.45,0 -0.26,0.6 -1.06,1.46 -1.09,2 -0.04,0.67 1.04,6.18 1.08,7.9l-3.43 0c0.04,-1.51 0.51,-3.83 0.73,-5.4 0.61,-4.3 0.36,-2.02 -0.74,-4.5zm-14.91 11.14l33.27 0c-0.38,-2.77 -1.08,-8.6 -2.35,-10.66 -0.8,-1.3 -1.99,-2.19 -3.78,-2.8 -1.47,-0.51 -3.42,-1.26 -4.94,-1.59l-0.06 -0.87 -1.21 0c0,1.06 -0.54,4.05 -0.98,4.72 -0.44,-0.55 -0.94,-1.13 -1.46,-1.71 -0.5,-0.56 -0.67,-1.21 -1.94,-1.18 -1.31,0.02 -1.22,0.57 -1.85,1.26l-1.38 1.63c-0.44,-0.67 -0.98,-3.66 -0.98,-4.72l-1.19 0 -0.12 0.87c-1.49,0.33 -3.54,1.11 -5.02,1.63 -1.71,0.6 -2.9,1.53 -3.66,2.76 -1.27,2.05 -1.97,7.88 -2.35,10.66z"/>
   <path class="fil1" d="M21.59 20.89c2.87,-0.53 4.93,0.5 8.74,-2.06 0.36,-0.24 0.61,-0.52 1.01,-0.69 1.07,2.18 2.66,2.11 3.78,2.71 -0.07,5.49 0.15,5.04 -3.5,8.72 -1.02,1.03 -1.23,1.04 -3.18,1.04 -2.58,-0.01 -2.61,-0.04 -5.28,-3 -1.87,-2.08 -1.53,-3.47 -1.57,-6.72zm14.72 3.44l0 -3.36c1.66,0.65 1.68,2.77 0,3.36zm-15.9 -3.36l0 3.36c-1.69,-0.57 -1.67,-2.7 0,-3.36zm-0.03 -1.38c0.01,-2.24 0.2,-3.91 1.29,-5.54 2.11,-3.17 6.3,-4.61 9.4,-3.13 1.86,0.9 2.1,1.74 3,3.75 2.89,0.05 2.25,2.38 2.26,4.92 -1.31,0.07 -2.44,-0.32 -3.16,-0.97 -0.32,-0.29 -0.58,-0.72 -0.86,-1.17l-0.58 -0.93c-0.16,-0.19 -0.15,-0.17 -0.25,-0.26 -2.62,2.82 -5.84,3.6 -11.1,3.33zm9.13 -10.42l-2.23 0c-1.23,0.57 -6.88,1.03 -7.98,7.75 -0.15,0.94 -0.1,1.62 -0.13,2.56 -0.04,1.23 -0.41,0.82 -0.89,1.81 -0.8,1.63 0.05,3.59 1.65,4.16 0.72,0.26 0.54,0.02 0.84,0.5 0.36,0.58 0.46,1.13 0.93,1.77 0.77,1.06 1.61,1.81 2.52,2.72 1.28,1.29 1.63,1.39 4.05,1.38 2.26,0 2.79,0.03 4.06,-1.21 1.37,-1.35 2.74,-2.53 3.46,-4.3 0.54,-1.33 0.35,-0.34 1.58,-1.12 2.98,-1.91 0.24,-4.92 0.18,-5.38 -0.27,-2.1 0.88,-4.96 -2,-6.11 -1.7,-0.67 -0.56,-2.3 -4.02,-3.91 -0.69,-0.32 -1.46,-0.37 -2.02,-0.62z"/>
  </g>
 </g>
</svg>
