<?xml version="1.0" encoding="UTF-8"?>
<!DOCTYPE svg PUBLIC "-//W3C//DTD SVG 1.1//EN" "http://www.w3.org/Graphics/SVG/1.1/DTD/svg11.dtd">
<!-- Creator: CorelDRAW -->
<svg xmlns="http://www.w3.org/2000/svg" xml:space="preserve" width="742px" height="166px" version="1.1" style="shape-rendering:geometricPrecision; text-rendering:geometricPrecision; image-rendering:optimizeQuality; fill-rule:evenodd; clip-rule:evenodd"
viewBox="0 0 235.65 52.88"
 xmlns:xlink="http://www.w3.org/1999/xlink"
 xmlns:xodm="http://www.corel.com/coreldraw/odm/2003">
 <defs>
  <style type="text/css">
   <![CDATA[
    .str0 {stroke:white;stroke-width:0.64;stroke-miterlimit:22.9256}
    .fil0 {fill:white}
    .fil2 {fill:#ADC8E5;fill-rule:nonzero}
    .fil3 {fill:#FFCC0F;fill-rule:nonzero}
    .fil1 {fill:white;fill-rule:nonzero}
   ]]>
  </style>
 </defs>
 <g id="Слой_x0020_1">
  <metadata id="CorelCorpID_0Corel-Layer"/>
  <g id="_1628171699296">
   <g>
    <path class="fil0" d="M1.89 24.95l-1.7 0 0 -4.78 8.34 0 0 21.68 1.26 -2.41 4.44 1.13 0.93 1.6 0 -4.5 -1.74 -0.39 0 -4.82 1.74 0.4 0 -13.96 8.29 2.03 0 4.81 -1.66 -0.39 0 9.12 2.02 0.47 0 4.81 -2.02 -0.47 0 13.27 -6.31 0 -3.74 -6.38 -3.52 6.38 -6.33 0 0 -27.6zm37.63 0l-3.71 0 0 7.02 5.21 1.23 0 4.81 -5.21 -1.22 0 11.02 3.71 -0.03 0 -4.78 6.64 -1.63 0 11.18 -18.68 0 0 -4.78 1.7 0 0 -12.59 -1.7 -0.39 0 -4.83 1.7 0.4 0 -5.41 -1.7 0 0 -4.78 18.68 0 0 7.62 -6.64 1.63 0 -4.47zm12.49 22.82l0 -12.59 -1.7 -0.39 0 -4.83 1.7 0.4 0 -11.46 8.29 2.03 0 4.81 -1.66 -0.39 0 6.62 2.01 0.48 0 4.83 -2.01 -0.49 0 11.02 3.71 -0.03 0 -4.78 6.64 -1.63 0 11.18 -18.68 0 0 -4.78 1.7 0zm22.35 0l0 -12.59 -1.7 -0.39 0 -4.83 1.7 0.4 0 -5.41 -1.7 0 0 -4.78 0.75 0c4.02,0 8.03,0 12.04,0l0.09 0 5.8 1.39 0 29.56 -5.8 1.43 -0.09 0c-4.01,0 -8.02,0 -12.04,0l-0.75 0 0 -4.78 1.7 0zm33.52 -22.82l-3.71 0 0 7.02 5.21 1.23 0 4.81 -5.21 -1.22 0 11.02 3.71 -0.03 0 -4.78 6.64 -1.63 0 11.18 -18.68 0 0 -4.78 1.7 0 0 -12.59 -1.7 -0.39 0 -4.83 1.7 0.4 0 -5.41 -1.7 0 0 -4.78 18.68 0 0 7.62 -6.64 1.63 0 -4.47zm13 22.82l0 -12.59 -1.7 -0.39 0 -4.83 1.7 0.4 0 -5.41 -1.7 0 0 -4.78 12.88 0 5.8 1.39 0 10.29 -5.34 1.32 5.34 1.3 0 13.3 1.66 0 0 4.78 -8.3 0 0 -14.89 -3.71 -0.86 0 15.75 -8.33 0 0 -4.78 1.7 0zm24.24 0l0 -12.59 -1.69 -0.39 0 -4.83 1.69 0.4 0 -5.41 -1.69 0 0 -4.78 0.75 0c4.01,0 8.02,0 12.04,0l0.09 0 5.79 1.39 0 29.56 -5.79 1.43 -0.09 0c-4.02,0 -8.03,0 -12.04,0l-0.75 0 0 -4.78 1.69 0zm39.73 -22.42l0 9.12 2.01 0.47 0 4.81 -2.01 -0.47 0 8.49 1.69 0 0 4.78 -8.32 0 0 -1.09 -4.47 1.11 -5.88 -1.45 0 -26.17 -1.7 0 0 -4.78 8.33 0 0 27.39 3.72 -0.93 0 -8.96 -1.7 -0.4 0 -4.81 1.7 0.39 0 -13.95 8.28 2.03 0 4.81 -1.65 -0.39zm12.83 -0.41l0 22.83 3.72 0 0 -4.38 6.63 -1.59 0 10.75 -11.19 0 -5.79 -1.43 0 -29.56 5.79 -1.39 11.19 0 0 7.62 -6.63 1.63 0 -4.51 -3.72 0.03zm33.69 0.41l0 6.5 -5.35 1.32 5.35 1.3 0 13.3 1.65 0 0 4.78 -8.29 0 0 -14.89 -3.71 -0.86 0 15.75 -8.33 0 0 -4.78 1.7 0 0 -12.59 -1.7 -0.39 0 -4.83 1.7 0.4 0 -5.41 -1.7 0 0 -4.78 8.33 0 0 9.39 3.71 -0.9 0 -9.76 8.29 2.03 0 4.81 -1.65 -0.39zm-146.67 -0.4c-1.23,0 -2.47,0 -3.7,0l0 7.02 2 0.48 0 4.83 -2 -0.49 0 11.02 3.7 -0.03 0 -22.83zm42.81 0l0 4.61 3.71 -0.9 0 -3.71 -3.71 0zm27.96 0c-1.24,0 -2.47,0 -3.71,0l0 7.02 2.01 0.48 0 4.83 -2.01 -0.49 0 11.02 3.71 -0.03 0 -22.83z"/>
    <path id="_1" class="fil1" d="M0.27 24.65l1.7 0 -0.16 0.6 -1.7 0 -0.11 -0.17 0.27 -0.43zm-0.16 0.6l-0.11 0 0 -0.17 0.11 0.17zm0.27 -5.21l0 4.78 -0.38 0.26 0 -4.78 0.27 -0.43 0.11 0.17zm-0.38 0.26l0 -0.43 0.27 0 -0.27 0.43zm8.44 0.18l-8.33 0 0.16 -0.61 8.34 0 0.11 0.17 -0.28 0.44zm0.17 -0.61l0.11 0 0 0.17 -0.11 -0.17zm-0.28 22.11l0 -21.68 0.39 -0.26 0 21.68 -0.07 0.25 -0.32 0.01zm0.32 -0.01l-0.32 0.6 0 -0.59 0.32 -0.01zm1.27 -2.41l-1.27 2.41 -0.25 -0.25 1.27 -2.41 0.23 -0.17 0.02 0.42zm-0.25 -0.25l0.11 -0.2 0.12 0.03 -0.23 0.17zm4.45 1.56l-4.43 -1.14 0.21 -0.59 4.43 1.13 0.06 0.05 -0.27 0.55zm0.21 -0.6l0.04 0.01 0.02 0.04 -0.06 -0.05zm0.66 2.15l-0.93 -1.6 0.33 -0.5 0.93 1.59 0.03 0.13 -0.36 0.38zm0.36 -0.38l0 0.99 -0.36 -0.61 0.36 -0.38zm0 -4.5l0 4.5 -0.38 0.25 0 -4.49 0.29 -0.43 0.09 0.17zm-0.09 -0.17l0.09 0.02 0 0.15 -0.09 -0.17zm-1.74 -0.39l1.74 0.39 -0.2 0.6 -1.74 -0.39 -0.09 -0.17 0.29 -0.43zm-0.2 0.6l-0.09 -0.02 0 -0.15 0.09 0.17zm0.29 -5.24l0 4.81 -0.38 0.26 0 -4.82 0.29 -0.43 0.09 0.18zm-0.38 0.25l0 -0.49 0.29 0.06 -0.29 0.43zm1.83 0.57l-1.74 -0.4 0.2 -0.6 1.74 0.4 0.09 0.17 -0.29 0.43zm0.29 -0.43l0 0.49 -0.29 -0.06 0.29 -0.43zm0 -13.96l0 13.96 -0.38 0.25 0 -13.95 0.29 -0.43 0.09 0.17zm-0.38 0.26l0 -0.5 0.29 0.07 -0.29 0.43zm8.38 2.2l-8.3 -2.03 0.21 -0.6 8.29 2.03 0.09 0.17 -0.29 0.43zm0.2 -0.6l0.09 0.02 0 0.15 -0.09 -0.17zm-0.29 5.24l0 -4.81 0.38 -0.26 0 4.81 -0.29 0.43 -0.09 -0.17zm0.38 -0.26l0 0.5 -0.29 -0.07 0.29 -0.43zm-1.74 -0.56l1.65 0.39 -0.2 0.6 -1.66 -0.39 -0.09 -0.17 0.3 -0.43zm-0.3 0.43l0 -0.5 0.3 0.07 -0.3 0.43zm0 9.11l0 -9.11 0.39 -0.26 0 9.12 -0.3 0.43 -0.09 -0.18zm0.09 0.18l-0.09 -0.03 0 -0.15 0.09 0.18zm2.02 0.47l-2.02 -0.47 0.21 -0.6 2.01 0.47 0.09 0.17 -0.29 0.43zm0.2 -0.6l0.09 0.02 0 0.15 -0.09 -0.17zm-0.29 5.24l0 -4.81 0.38 -0.26 0 4.81 -0.29 0.43 -0.09 -0.17zm0.38 -0.26l0 0.5 -0.29 -0.07 0.29 -0.43zm-2.1 -0.64l2.01 0.47 -0.2 0.6 -2.02 -0.46 -0.09 -0.18 0.3 -0.43zm-0.3 0.43l0 -0.49 0.3 0.06 -0.3 0.43zm0 13.27l0 -13.27 0.39 -0.25 0 13.26 -0.28 0.43 -0.11 -0.17zm0.39 -0.26l0 0.43 -0.28 0 0.28 -0.43zm-6.43 -0.17l6.31 0 -0.16 0.6 -6.31 0 -0.09 -0.05 0.25 -0.55zm-0.16 0.6l-0.06 0 -0.03 -0.05 0.09 0.05zm-3.49 -6.93l3.73 6.38 -0.33 0.5 -3.73 -6.38 0.04 -0.39 0.29 -0.11zm-0.29 0.11l0.17 -0.31 0.12 0.2 -0.29 0.11zm-3.52 6.39l3.52 -6.39 0.24 0.27 -3.52 6.38 -0.2 0.17 -0.04 -0.43zm0.24 0.26l-0.1 0.17 -0.1 0 0.2 -0.17zm-6.37 -0.43l6.33 0 -0.16 0.6 -6.33 0 -0.11 -0.17 0.27 -0.43zm-0.16 0.6l-0.11 0 0 -0.17 0.11 0.17zm0.27 -28.03l0 27.6 -0.38 0.26 0 -27.6 0.27 -0.43 0.11 0.17zm-0.11 -0.17l0.11 0 0 0.17 -0.11 -0.17zm33.92 0l3.71 0 -0.16 0.6 -3.71 0 -0.11 -0.17 0.27 -0.43zm-0.27 0.43l0 -0.43 0.27 0 -0.27 0.43zm0 7.02l0 -7.02 0.38 -0.26 0 7.02 -0.29 0.43 -0.09 -0.17zm0.09 0.17l-0.09 -0.02 0 -0.15 0.09 0.17zm5.21 1.23l-5.21 -1.23 0.2 -0.6 5.22 1.23 0.09 0.17 -0.3 0.43zm0.21 -0.6l0.09 0.02 0 0.15 -0.09 -0.17zm-0.3 5.24l0 -4.81 0.39 -0.26 0 4.82 -0.3 0.42 -0.09 -0.17zm0.39 -0.25l0 0.49 -0.3 -0.07 0.3 -0.42zm-5.31 -1.4l5.22 1.22 -0.21 0.6 -5.21 -1.22 -0.09 -0.17 0.29 -0.43zm-0.29 0.43l0 -0.49 0.29 0.06 -0.29 0.43zm0 11.02l0 -11.02 0.38 -0.25 0 11.01 -0.27 0.43 -0.11 -0.17zm0.11 0.17l-0.11 0 0 -0.17 0.11 0.17zm3.71 -0.03l-3.71 0.03 0.16 -0.61 3.71 -0.02 0.11 0.17 -0.27 0.43zm0.27 -0.43l0 0.43 -0.27 0 0.27 -0.43zm0 -4.78l0 4.78 -0.38 0.26 0 -4.79 0.25 -0.42 0.13 0.17zm-0.38 0.25l0 -0.36 0.25 -0.06 -0.25 0.42zm6.77 -1.45l-6.63 1.62 0.11 -0.59 6.63 -1.63 0.14 0.17 -0.25 0.43zm0.11 -0.6l0.14 -0.04 0 0.21 -0.14 -0.17zm-0.24 11.61l0 -11.18 0.38 -0.26 0 11.18 -0.27 0.43 -0.11 -0.17zm0.38 -0.26l0 0.43 -0.27 0 0.27 -0.43zm-18.79 -0.17l18.68 0 -0.16 0.6 -18.68 0 -0.11 -0.17 0.27 -0.43zm-0.16 0.6l-0.11 0 0 -0.17 0.11 0.17zm0.27 -5.21l0 4.78 -0.38 0.26 0 -4.78 0.27 -0.43 0.11 0.17zm-0.38 0.26l0 -0.43 0.27 0 -0.27 0.43zm1.81 0.18l-1.7 0 0.16 -0.61 1.7 0 0.11 0.17 -0.27 0.44zm0.27 -0.44l0 0.44 -0.27 0 0.27 -0.44zm0 -12.59l0 12.59 -0.38 0.26 0 -12.59 0.29 -0.43 0.09 0.17zm-0.09 -0.17l0.09 0.02 0 0.15 -0.09 -0.17zm-1.7 -0.39l1.7 0.39 -0.2 0.6 -1.7 -0.39 -0.09 -0.17 0.29 -0.43zm-0.2 0.6l-0.09 -0.02 0 -0.15 0.09 0.17zm0.29 -5.26l0 4.83 -0.38 0.26 0 -4.83 0.29 -0.43 0.09 0.17zm-0.38 0.26l0 -0.5 0.29 0.07 -0.29 0.43zm1.79 0.57l-1.7 -0.4 0.2 -0.6 1.7 0.4 0.09 0.17 -0.29 0.43zm0.29 -0.43l0 0.5 -0.29 -0.07 0.29 -0.43zm0 -5.41l0 5.41 -0.38 0.26 0 -5.41 0.27 -0.43 0.11 0.17zm-0.11 -0.17l0.11 0 0 0.17 -0.11 -0.17zm-1.7 0l1.7 0 -0.16 0.6 -1.7 0 -0.11 -0.17 0.27 -0.43zm-0.16 0.6l-0.11 0 0 -0.17 0.11 0.17zm0.27 -5.21l0 4.78 -0.38 0.26 0 -4.78 0.27 -0.43 0.11 0.17zm-0.38 0.26l0 -0.43 0.27 0 -0.27 0.43zm18.79 0.18l-18.68 0 0.16 -0.61 18.68 0 0.11 0.17 -0.27 0.44zm0.16 -0.61l0.11 0 0 0.17 -0.11 -0.17zm-0.27 8.05l0 -7.62 0.38 -0.26 0 7.62 -0.25 0.43 -0.13 -0.17zm0.38 -0.26l0 0.37 -0.25 0.06 0.25 -0.43zm-6.77 1.46l6.63 -1.63 -0.11 0.6 -6.63 1.63 -0.14 -0.17 0.25 -0.43zm-0.11 0.6l-0.14 0.03 0 -0.2 0.14 0.17zm0.24 -4.9l0 4.47 -0.38 0.26 0 -4.47 0.27 -0.43 0.11 0.17zm-0.11 -0.17l0.11 0 0 0.17 -0.11 -0.17zm12.6 10.4l0 12.59 -0.38 0.26 0 -12.59 0.29 -0.43 0.09 0.17zm-0.09 -0.17l0.09 0.02 0 0.15 -0.09 -0.17zm-1.7 -0.39l1.7 0.39 -0.2 0.6 -1.7 -0.39 -0.09 -0.17 0.29 -0.43zm-0.2 0.6l-0.09 -0.02 0 -0.15 0.09 0.17zm0.29 -5.26l0 4.83 -0.38 0.26 0 -4.83 0.29 -0.43 0.09 0.17zm-0.38 0.26l0 -0.5 0.29 0.07 -0.29 0.43zm1.79 0.57l-1.7 -0.4 0.2 -0.6 1.7 0.4 0.09 0.17 -0.29 0.43zm0.29 -0.43l0 0.5 -0.29 -0.07 0.29 -0.43zm0 -11.46l0 11.46 -0.38 0.26 0 -11.46 0.29 -0.43 0.09 0.17zm-0.38 0.26l0 -0.5 0.29 0.07 -0.29 0.43zm8.37 2.2l-8.28 -2.03 0.2 -0.6 8.29 2.03 0.09 0.17 -0.3 0.43zm0.21 -0.6l0.09 0.02 0 0.15 -0.09 -0.17zm-0.3 5.24l0 -4.81 0.39 -0.26 0 4.81 -0.3 0.43 -0.09 -0.17zm0.39 -0.26l0 0.5 -0.3 -0.07 0.3 -0.43zm-1.75 -0.56l1.66 0.39 -0.21 0.6 -1.66 -0.39 -0.08 -0.17 0.29 -0.43zm-0.29 0.43l0 -0.5 0.29 0.07 -0.29 0.43zm0 6.62l0 -6.62 0.38 -0.26 0 6.63 -0.3 0.42 -0.08 -0.17zm0.08 0.17l-0.08 -0.02 0 -0.15 0.08 0.17zm2.02 0.48l-2.02 -0.48 0.21 -0.6 2.02 0.48 0.08 0.17 -0.29 0.43zm0.21 -0.6l0.08 0.02 0 0.15 -0.08 -0.17zm-0.3 5.25l0 -4.82 0.38 -0.26 0 4.83 -0.29 0.42 -0.09 -0.17zm0.38 -0.25l0 0.5 -0.29 -0.08 0.29 -0.42zm-2.1 -0.66l2.02 0.49 -0.21 0.59 -2.02 -0.48 -0.08 -0.18 0.29 -0.42zm-0.29 0.42l0 -0.5 0.29 0.08 -0.29 0.42zm0 11.03l0 -11.03 0.38 -0.25 0 11.02 -0.27 0.43 -0.11 -0.17zm0.11 0.17l-0.11 0 0 -0.17 0.11 0.17zm3.71 -0.03l-3.71 0.03 0.16 -0.61 3.71 -0.02 0.11 0.17 -0.27 0.43zm0.27 -0.43l0 0.43 -0.27 0 0.27 -0.43zm0 -4.78l0 4.78 -0.38 0.26 0 -4.79 0.25 -0.42 0.13 0.17zm-0.38 0.25l0 -0.36 0.25 -0.06 -0.25 0.42zm6.77 -1.45l-6.63 1.62 0.11 -0.59 6.63 -1.63 0.14 0.17 -0.25 0.43zm0.11 -0.6l0.14 -0.04 0 0.21 -0.14 -0.17zm-0.24 11.61l0 -11.18 0.38 -0.26 0 11.18 -0.27 0.43 -0.11 -0.17zm0.38 -0.26l0 0.43 -0.27 0 0.27 -0.43zm-18.79 -0.17l18.68 0 -0.16 0.6 -18.68 0 -0.11 -0.17 0.27 -0.43zm-0.16 0.6l-0.11 0 0 -0.17 0.11 0.17zm0.27 -5.21l0 4.78 -0.38 0.26 0 -4.78 0.27 -0.43 0.11 0.17zm-0.38 0.26l0 -0.43 0.27 0 -0.27 0.43zm1.81 0.18l-1.7 0 0.16 -0.61 1.7 0 0.11 0.17 -0.27 0.44zm0.27 -0.44l0 0.44 -0.27 0 0.27 -0.44zm22.35 -12.59l0 12.59 -0.38 0.26 0 -12.59 0.29 -0.43 0.09 0.17zm-0.09 -0.17l0.09 0.02 0 0.15 -0.09 -0.17zm-1.7 -0.39l1.7 0.39 -0.2 0.6 -1.7 -0.39 -0.09 -0.17 0.29 -0.43zm-0.2 0.6l-0.09 -0.02 0 -0.15 0.09 0.17zm0.29 -5.26l0 4.83 -0.38 0.26 0 -4.83 0.29 -0.43 0.09 0.17zm-0.38 0.26l0 -0.5 0.29 0.07 -0.29 0.43zm1.79 0.57l-1.7 -0.4 0.2 -0.6 1.7 0.4 0.09 0.17 -0.29 0.43zm0.29 -0.43l0 0.5 -0.29 -0.07 0.29 -0.43zm0 -5.41l0 5.41 -0.38 0.26 0 -5.41 0.27 -0.43 0.11 0.17zm-0.11 -0.17l0.11 0 0 0.17 -0.11 -0.17zm-1.7 0l1.7 0 -0.16 0.6 -1.7 0 -0.11 -0.17 0.27 -0.43zm-0.16 0.6l-0.11 0 0 -0.17 0.11 0.17zm0.27 -5.21l0 4.78 -0.38 0.26 0 -4.78 0.27 -0.43 0.11 0.17zm-0.38 0.26l0 -0.43 0.27 0 -0.27 0.43zm0.86 0.18l-0.75 0 0.16 -0.61 0.75 0 0 0 -0.16 0.61zm12.2 -0.61l-0.16 0.61 0 0 -0.75 0 -0.75 0 -0.76 0 -0.75 0 -0.75 0 -0.75 0 -0.76 0 -0.75 0 -0.75 0 -0.75 0 -0.76 0 -0.75 0 -0.75 0 -0.75 0 -0.76 0 -0.75 0 0.16 -0.61 0.76 0 0.75 0 0.75 0 0.75 0 0.76 0 0.75 0 0.75 0 0.75 0 0.76 0 0.75 0 0.75 0 0.75 0 0.76 0 0.75 0 0.75 0 0.75 0 0 0zm-0.07 0.61l-0.09 0 0.16 -0.61 0.09 0 0.03 0 -0.19 0.61zm0.16 -0.61l0.01 0 0.02 0 -0.03 0zm5.62 1.99l-5.8 -1.39 0.21 -0.6 5.79 1.39 0.09 0.17 -0.29 0.43zm0.2 -0.6l0.09 0.02 0 0.15 -0.09 -0.17zm-0.29 29.99l0 -29.56 0.38 -0.26 0 29.56 -0.25 0.43 -0.13 -0.17zm0.38 -0.26l0 0.37 -0.25 0.06 0.25 -0.43zm-5.93 1.26l5.79 -1.43 -0.11 0.6 -5.79 1.43 -0.03 0 0.14 -0.6zm-0.11 0.6l-0.01 0 -0.02 0 0.03 0zm0.04 -0.6l0.1 0 -0.17 0.6 -0.09 0 0 0 0.16 -0.6zm-12.2 0.6l0.16 -0.6 0 0 0.76 0 0.75 0 0.75 0 0.75 0 0.76 0 0.75 0 0.75 0 0.75 0 0.76 0 0.75 0 0.75 0 0.75 0 0.76 0 0.75 0 0.75 0 0.75 0 -0.16 0.6 -0.75 0 -0.75 0 -0.76 0 -0.75 0 -0.75 0 -0.75 0 -0.76 0 -0.75 0 -0.75 0 -0.75 0 -0.76 0 -0.75 0 -0.75 0 -0.75 0 -0.76 0 -0.75 0 0 0zm-0.59 -0.6l0.75 0 -0.16 0.6 -0.75 0 -0.11 -0.17 0.27 -0.43zm-0.16 0.6l-0.11 0 0 -0.17 0.11 0.17zm0.27 -5.21l0 4.78 -0.38 0.26 0 -4.78 0.27 -0.43 0.11 0.17zm-0.38 0.26l0 -0.43 0.27 0 -0.27 0.43zm1.81 0.18l-1.7 0 0.16 -0.61 1.7 0 0.11 0.17 -0.27 0.44zm0.27 -0.44l0 0.44 -0.27 0 0.27 -0.44zm29.7 -22.99l3.71 0 -0.16 0.6 -3.71 0 -0.11 -0.17 0.27 -0.43zm-0.27 0.43l0 -0.43 0.27 0 -0.27 0.43zm0 7.02l0 -7.02 0.38 -0.26 0 7.02 -0.29 0.43 -0.09 -0.17zm0.09 0.17l-0.09 -0.02 0 -0.15 0.09 0.17zm5.21 1.23l-5.21 -1.23 0.2 -0.6 5.22 1.23 0.09 0.17 -0.3 0.43zm0.21 -0.6l0.09 0.02 0 0.15 -0.09 -0.17zm-0.3 5.24l0 -4.81 0.39 -0.26 0 4.82 -0.3 0.42 -0.09 -0.17zm0.39 -0.25l0 0.49 -0.3 -0.07 0.3 -0.42zm-5.31 -1.4l5.22 1.22 -0.21 0.6 -5.21 -1.22 -0.09 -0.17 0.29 -0.43zm-0.29 0.43l0 -0.49 0.29 0.06 -0.29 0.43zm0 11.02l0 -11.02 0.38 -0.25 0 11.01 -0.27 0.43 -0.11 -0.17zm0.11 0.17l-0.11 0 0 -0.17 0.11 0.17zm3.71 -0.03l-3.71 0.03 0.16 -0.61 3.71 -0.02 0.11 0.17 -0.27 0.43zm0.27 -0.43l0 0.43 -0.27 0 0.27 -0.43zm0 -4.78l0 4.78 -0.38 0.26 0 -4.79 0.25 -0.42 0.13 0.17zm-0.38 0.25l0 -0.36 0.25 -0.06 -0.25 0.42zm6.77 -1.45l-6.63 1.62 0.11 -0.59 6.63 -1.63 0.14 0.17 -0.25 0.43zm0.11 -0.6l0.14 -0.04 0 0.21 -0.14 -0.17zm-0.24 11.61l0 -11.18 0.38 -0.26 0 11.18 -0.27 0.43 -0.11 -0.17zm0.38 -0.26l0 0.43 -0.27 0 0.27 -0.43zm-18.79 -0.17l18.68 0 -0.16 0.6 -18.68 0 -0.11 -0.17 0.27 -0.43zm-0.16 0.6l-0.11 0 0 -0.17 0.11 0.17zm0.27 -5.21l0 4.78 -0.38 0.26 0 -4.78 0.27 -0.43 0.11 0.17zm-0.38 0.26l0 -0.43 0.27 0 -0.27 0.43zm1.81 0.18l-1.7 0 0.16 -0.61 1.7 0 0.11 0.17 -0.27 0.44zm0.27 -0.44l0 0.44 -0.27 0 0.27 -0.44zm0 -12.59l0 12.59 -0.38 0.26 0 -12.59 0.29 -0.43 0.09 0.17zm-0.09 -0.17l0.09 0.02 0 0.15 -0.09 -0.17zm-1.7 -0.39l1.7 0.39 -0.2 0.6 -1.7 -0.39 -0.09 -0.17 0.29 -0.43zm-0.2 0.6l-0.09 -0.02 0 -0.15 0.09 0.17zm0.29 -5.26l0 4.83 -0.38 0.26 0 -4.83 0.29 -0.43 0.09 0.17zm-0.38 0.26l0 -0.5 0.29 0.07 -0.29 0.43zm1.79 0.57l-1.7 -0.4 0.2 -0.6 1.7 0.4 0.09 0.17 -0.29 0.43zm0.29 -0.43l0 0.5 -0.29 -0.07 0.29 -0.43zm0 -5.41l0 5.41 -0.38 0.26 0 -5.41 0.27 -0.43 0.11 0.17zm-0.11 -0.17l0.11 0 0 0.17 -0.11 -0.17zm-1.7 0l1.7 0 -0.16 0.6 -1.7 0 -0.11 -0.17 0.27 -0.43zm-0.16 0.6l-0.11 0 0 -0.17 0.11 0.17zm0.27 -5.21l0 4.78 -0.38 0.26 0 -4.78 0.27 -0.43 0.11 0.17zm-0.38 0.26l0 -0.43 0.27 0 -0.27 0.43zm18.79 0.18l-18.68 0 0.16 -0.61 18.68 0 0.11 0.17 -0.27 0.44zm0.16 -0.61l0.11 0 0 0.17 -0.11 -0.17zm-0.27 8.05l0 -7.62 0.38 -0.26 0 7.62 -0.25 0.43 -0.13 -0.17zm0.38 -0.26l0 0.37 -0.25 0.06 0.25 -0.43zm-6.77 1.46l6.63 -1.63 -0.11 0.6 -6.63 1.63 -0.14 -0.17 0.25 -0.43zm-0.11 0.6l-0.14 0.03 0 -0.2 0.14 0.17zm0.24 -4.9l0 4.47 -0.38 0.26 0 -4.47 0.27 -0.43 0.11 0.17zm-0.11 -0.17l0.11 0 0 0.17 -0.11 -0.17zm13.11 10.4l0 12.59 -0.38 0.26 0 -12.59 0.29 -0.43 0.09 0.17zm-0.09 -0.17l0.09 0.02 0 0.15 -0.09 -0.17zm-1.69 -0.39l1.69 0.39 -0.2 0.6 -1.7 -0.39 -0.09 -0.17 0.3 -0.43zm-0.21 0.6l-0.09 -0.02 0 -0.15 0.09 0.17zm0.29 -5.26l0 4.83 -0.38 0.26 0 -4.83 0.3 -0.43 0.08 0.17zm-0.38 0.26l0 -0.5 0.3 0.07 -0.3 0.43zm1.79 0.57l-1.7 -0.4 0.21 -0.6 1.69 0.4 0.09 0.17 -0.29 0.43zm0.29 -0.43l0 0.5 -0.29 -0.07 0.29 -0.43zm0 -5.41l0 5.41 -0.38 0.26 0 -5.41 0.27 -0.43 0.11 0.17zm-0.11 -0.17l0.11 0 0 0.17 -0.11 -0.17zm-1.7 0l1.7 0 -0.16 0.6 -1.7 0 -0.11 -0.17 0.27 -0.43zm-0.16 0.6l-0.11 0 0 -0.17 0.11 0.17zm0.27 -5.21l0 4.78 -0.38 0.26 0 -4.78 0.27 -0.43 0.11 0.17zm-0.38 0.26l0 -0.43 0.27 0 -0.27 0.43zm12.99 0.18l-12.88 0 0.16 -0.61 12.88 0 0.03 0 -0.19 0.61zm0.16 -0.61l0.02 0 0.01 0 -0.03 0zm5.62 1.99l-5.8 -1.39 0.21 -0.6 5.79 1.39 0.09 0.17 -0.29 0.43zm0.2 -0.6l0.09 0.02 0 0.15 -0.09 -0.17zm-0.29 10.72l0 -10.29 0.38 -0.26 0 10.3 -0.25 0.42 -0.13 -0.17zm0.38 -0.25l0 0.36 -0.25 0.06 0.25 -0.42zm-5.48 1.14l5.34 -1.31 -0.11 0.59 -5.34 1.32 -0.05 0 0.16 -0.6zm-0.16 0.6l-1.14 -0.28 1.3 -0.32 -0.16 0.6zm5.35 1.3l-5.35 -1.3 0.21 -0.6 5.34 1.3 0.09 0.17 -0.29 0.43zm0.2 -0.6l0.09 0.02 0 0.15 -0.09 -0.17zm-0.29 13.73l0 -13.3 0.38 -0.26 0 13.3 -0.27 0.44 -0.11 -0.18zm0.11 0.18l-0.11 0 0 -0.18 0.11 0.18zm1.66 0l-1.66 0 0.16 -0.61 1.66 0 0.11 0.17 -0.27 0.44zm0.16 -0.61l0.11 0 0 0.17 -0.11 -0.17zm-0.27 5.21l0 -4.78 0.38 -0.26 0 4.78 -0.27 0.43 -0.11 -0.17zm0.38 -0.26l0 0.43 -0.27 0 0.27 -0.43zm-8.4 -0.17l8.29 0 -0.16 0.6 -8.3 0 -0.11 -0.17 0.28 -0.43zm-0.17 0.6l-0.11 0 0 -0.17 0.11 0.17zm0.28 -15.32l0 14.89 -0.39 0.26 0 -14.89 0.3 -0.43 0.09 0.17zm-0.09 -0.17l0.09 0.02 0 0.15 -0.09 -0.17zm-3.72 -0.86l3.72 0.86 -0.21 0.6 -3.71 -0.86 -0.09 -0.18 0.29 -0.42zm-0.29 0.42l0 -0.49 0.29 0.07 -0.29 0.42zm0 15.76l0 -15.76 0.38 -0.25 0 15.75 -0.27 0.43 -0.11 -0.17zm0.38 -0.26l0 0.43 -0.27 0 0.27 -0.43zm-8.44 -0.17l8.33 0 -0.16 0.6 -8.33 0 -0.11 -0.17 0.27 -0.43zm-0.16 0.6l-0.11 0 0 -0.17 0.11 0.17zm0.27 -5.21l0 4.78 -0.38 0.26 0 -4.78 0.27 -0.43 0.11 0.17zm-0.38 0.26l0 -0.43 0.27 0 -0.27 0.43zm1.81 0.18l-1.7 0 0.16 -0.61 1.7 0 0.11 0.17 -0.27 0.44zm0.27 -0.44l0 0.44 -0.27 0 0.27 -0.44zm24.25 -12.59l0 12.59 -0.39 0.26 0 -12.59 0.3 -0.43 0.09 0.17zm-0.09 -0.17l0.09 0.02 0 0.15 -0.09 -0.17zm-1.7 -0.39l1.7 0.39 -0.21 0.6 -1.7 -0.39 -0.09 -0.17 0.3 -0.43zm-0.21 0.6l-0.09 -0.02 0 -0.15 0.09 0.17zm0.3 -5.26l0 4.83 -0.39 0.26 0 -4.83 0.3 -0.43 0.09 0.17zm-0.39 0.26l0 -0.5 0.3 0.07 -0.3 0.43zm1.79 0.57l-1.7 -0.4 0.21 -0.6 1.7 0.4 0.09 0.17 -0.3 0.43zm0.3 -0.43l0 0.5 -0.3 -0.07 0.3 -0.43zm0 -5.41l0 5.41 -0.39 0.26 0 -5.41 0.28 -0.43 0.11 0.17zm-0.11 -0.17l0.11 0 0 0.17 -0.11 -0.17zm-1.7 0l1.7 0 -0.17 0.6 -1.69 0 -0.12 -0.17 0.28 -0.43zm-0.16 0.6l-0.12 0 0 -0.17 0.12 0.17zm0.27 -5.21l0 4.78 -0.39 0.26 0 -4.78 0.28 -0.43 0.11 0.17zm-0.39 0.26l0 -0.43 0.28 0 -0.28 0.43zm0.87 0.18l-0.75 0 0.16 -0.61 0.75 0 0 0 -0.16 0.61zm12.2 -0.61l-0.16 0.61 0 0 -0.76 0 -0.75 0 -0.75 0 -0.75 0 -0.76 0 -0.75 0 -0.75 0 -0.75 0 -0.76 0 -0.75 0 -0.75 0 -0.75 0 -0.76 0 -0.75 0 -0.75 0 -0.75 0 0.16 -0.61 0.75 0 0.75 0 0.76 0 0.75 0 0.75 0 0.75 0 0.76 0 0.75 0 0.75 0 0.75 0 0.76 0 0.75 0 0.75 0 0.75 0 0.76 0 0.75 0 0 0zm-0.07 0.61l-0.09 0 0.16 -0.61 0.09 0 0.02 0 -0.18 0.61zm0.16 -0.61l0.01 0 0.01 0 -0.02 0zm5.61 1.99l-5.8 -1.39 0.21 -0.6 5.8 1.39 0.09 0.17 -0.3 0.43zm0.21 -0.6l0.09 0.02 0 0.15 -0.09 -0.17zm-0.3 29.99l0 -29.56 0.39 -0.26 0 29.56 -0.25 0.43 -0.14 -0.17zm0.39 -0.26l0 0.37 -0.25 0.06 0.25 -0.43zm-5.94 1.26l5.8 -1.43 -0.11 0.6 -5.8 1.43 -0.02 0 0.13 -0.6zm-0.11 0.6l-0.01 0 -0.01 0 0.02 0zm0.05 -0.6l0.09 0 -0.16 0.6 -0.09 0 0 0 0.16 -0.6zm-12.2 0.6l0.16 -0.6 0 0 0.75 0 0.75 0 0.76 0 0.75 0 0.75 0 0.75 0 0.76 0 0.75 0 0.75 0 0.75 0 0.76 0 0.75 0 0.75 0 0.75 0 0.76 0 0.75 0 -0.16 0.6 -0.76 0 -0.75 0 -0.75 0 -0.75 0 -0.76 0 -0.75 0 -0.75 0 -0.75 0 -0.76 0 -0.75 0 -0.75 0 -0.75 0 -0.76 0 -0.75 0 -0.75 0 -0.75 0 0 0zm-0.59 -0.6l0.75 0 -0.16 0.6 -0.75 0 -0.12 -0.17 0.28 -0.43zm-0.16 0.6l-0.12 0 0 -0.17 0.12 0.17zm0.27 -5.21l0 4.78 -0.39 0.26 0 -4.78 0.28 -0.43 0.11 0.17zm-0.39 0.26l0 -0.43 0.28 0 -0.28 0.43zm1.81 0.18l-1.69 0 0.16 -0.61 1.7 0 0.11 0.17 -0.28 0.44zm0.28 -0.44l0 0.44 -0.28 0 0.28 -0.44zm39.33 -13.05l0 -9.11 0.39 -0.26 0 9.12 -0.3 0.43 -0.09 -0.18zm0.09 0.18l-0.09 -0.03 0 -0.15 0.09 0.18zm2.02 0.47l-2.02 -0.47 0.21 -0.6 2.01 0.47 0.09 0.17 -0.29 0.43zm0.2 -0.6l0.09 0.02 0 0.15 -0.09 -0.17zm-0.29 5.24l0 -4.81 0.38 -0.26 0 4.81 -0.29 0.43 -0.09 -0.17zm0.38 -0.26l0 0.5 -0.29 -0.07 0.29 -0.43zm-2.1 -0.64l2.01 0.47 -0.2 0.6 -2.02 -0.47 -0.09 -0.17 0.3 -0.43zm-0.3 0.43l0 -0.5 0.3 0.07 -0.3 0.43zm0 8.49l0 -8.49 0.39 -0.26 0 8.49 -0.28 0.44 -0.11 -0.18zm0.11 0.18l-0.11 0 0 -0.18 0.11 0.18zm1.7 0l-1.7 0 0.17 -0.61 1.69 0 0.12 0.17 -0.28 0.44zm0.16 -0.61l0.12 0 0 0.17 -0.12 -0.17zm-0.27 5.21l0 -4.78 0.39 -0.26 0 4.78 -0.28 0.43 -0.11 -0.17zm0.39 -0.26l0 0.43 -0.28 0 0.28 -0.43zm-8.44 -0.17l8.32 0 -0.16 0.6 -8.32 0 -0.12 -0.17 0.28 -0.43zm-0.16 0.6l-0.12 0 0 -0.17 0.12 0.17zm0.27 -1.52l0 1.09 -0.39 0.26 0 -1.09 0.25 -0.43 0.14 0.17zm-0.14 -0.17l0.14 -0.03 0 0.2 -0.14 -0.17zm-4.46 1.11l4.46 -1.11 -0.11 0.6 -4.46 1.11 -0.05 0 0.16 -0.6zm-0.11 0.6l-0.03 0.01 -0.02 -0.01 0.05 0zm-5.73 -2.05l5.89 1.45 -0.21 0.6 -5.89 -1.45 -0.09 -0.17 0.3 -0.43zm-0.21 0.6l-0.09 -0.02 0 -0.15 0.09 0.17zm0.3 -26.6l0 26.17 -0.39 0.26 0 -26.17 0.28 -0.43 0.11 0.17zm-0.11 -0.17l0.11 0 0 0.17 -0.11 -0.17zm-1.7 0l1.7 0 -0.17 0.6 -1.69 0 -0.11 -0.17 0.27 -0.43zm-0.16 0.6l-0.11 0 0 -0.17 0.11 0.17zm0.27 -5.21l0 4.78 -0.38 0.26 0 -4.78 0.27 -0.43 0.11 0.17zm-0.38 0.26l0 -0.43 0.27 0 -0.27 0.43zm8.44 0.18l-8.33 0 0.16 -0.61 8.33 0 0.11 0.17 -0.27 0.44zm0.16 -0.61l0.11 0 0 0.17 -0.11 -0.17zm-0.27 27.82l0 -27.39 0.38 -0.26 0 27.39 -0.24 0.43 -0.14 -0.17zm0.14 0.17l-0.14 0.03 0 -0.2 0.14 0.17zm3.71 -0.93l-3.71 0.93 0.11 -0.6 3.71 -0.93 0.14 0.17 -0.25 0.43zm0.25 -0.43l0 0.37 -0.25 0.06 0.25 -0.43zm0 -8.96l0 8.96 -0.39 0.26 0 -8.97 0.3 -0.42 0.09 0.17zm-0.09 -0.17l0.09 0.02 0 0.15 -0.09 -0.17zm-1.7 -0.4l1.7 0.4 -0.21 0.6 -1.69 -0.4 -0.09 -0.17 0.29 -0.43zm-0.2 0.6l-0.09 -0.02 0 -0.15 0.09 0.17zm0.29 -5.24l0 4.82 -0.38 0.25 0 -4.81 0.29 -0.43 0.09 0.17zm-0.38 0.26l0 -0.5 0.29 0.07 -0.29 0.43zm1.78 0.56l-1.69 -0.39 0.2 -0.6 1.7 0.39 0.09 0.17 -0.3 0.43zm0.3 -0.43l0 0.5 -0.3 -0.07 0.3 -0.43zm0 -13.95l0 13.95 -0.39 0.26 0 -13.95 0.3 -0.43 0.09 0.17zm-0.39 0.26l0 -0.5 0.3 0.07 -0.3 0.43zm8.38 2.2l-8.29 -2.03 0.21 -0.6 8.29 2.03 0.08 0.17 -0.29 0.43zm0.21 -0.6l0.08 0.02 0 0.15 -0.08 -0.17zm-0.3 5.24l0 -4.81 0.38 -0.26 0 4.81 -0.29 0.43 -0.09 -0.17zm0.38 -0.26l0 0.5 -0.29 -0.07 0.29 -0.43zm-1.74 -0.56l1.66 0.39 -0.21 0.6 -1.66 -0.39 -0.09 -0.17 0.3 -0.43zm-0.3 0.43l0 -0.5 0.3 0.07 -0.3 0.43zm12.84 22.42l0 -22.83 0.38 -0.26 0 22.83 -0.27 0.44 -0.11 -0.18zm0.11 0.18l-0.11 0 0 -0.18 0.11 0.18zm3.71 0l-3.71 0 0.16 -0.61 3.72 0 0.11 0.17 -0.28 0.44zm0.28 -0.44l0 0.44 -0.28 0 0.28 -0.44zm0 -4.38l0 4.38 -0.39 0.26 0 -4.38 0.25 -0.43 0.14 0.17zm-0.39 0.26l0 -0.37 0.25 -0.06 -0.25 0.43zm6.77 -1.42l-6.63 1.59 0.11 -0.6 6.63 -1.59 0.14 0.18 -0.25 0.42zm0.11 -0.6l0.14 -0.03 0 0.21 -0.14 -0.18zm-0.25 11.18l0 -10.75 0.39 -0.25 0 10.74 -0.28 0.43 -0.11 -0.17zm0.39 -0.26l0 0.43 -0.28 0 0.28 -0.43zm-11.3 -0.17l11.19 0 -0.17 0.6 -11.18 0 -0.02 0 0.18 -0.6zm-0.16 0.6l-0.01 0 -0.01 0 0.02 0zm-5.6 -2.03l5.78 1.43 -0.2 0.6 -5.79 -1.43 -0.09 -0.17 0.3 -0.43zm-0.21 0.6l-0.09 -0.02 0 -0.15 0.09 0.17zm0.29 -29.99l0 29.56 -0.38 0.26 0 -29.56 0.25 -0.43 0.13 0.17zm-0.38 0.26l0 -0.37 0.25 -0.06 -0.25 0.43zm5.93 -1.22l-5.79 1.39 0.11 -0.6 5.79 -1.39 0.02 0 -0.13 0.6zm0.11 -0.6l0.01 0 0.01 0 -0.02 0zm11.04 0.61l-11.18 0 0.16 -0.61 11.19 0 0.11 0.17 -0.28 0.44zm0.17 -0.61l0.11 0 0 0.17 -0.11 -0.17zm-0.28 8.05l0 -7.62 0.39 -0.26 0 7.62 -0.25 0.43 -0.14 -0.17zm0.39 -0.26l0 0.37 -0.25 0.06 0.25 -0.43zm-6.77 1.46l6.63 -1.63 -0.11 0.6 -6.63 1.63 -0.14 -0.17 0.25 -0.43zm-0.11 0.6l-0.14 0.03 0 -0.2 0.14 0.17zm0.25 -4.93l0 4.5 -0.39 0.26 0 -4.51 0.28 -0.43 0.11 0.18zm-0.11 -0.18l0.11 0 0 0.18 -0.11 -0.18zm-3.72 0.03l3.72 -0.03 -0.16 0.61 -3.72 0.03 -0.11 -0.18 0.27 -0.43zm-0.27 0.43l0 -0.43 0.27 0 -0.27 0.43zm33.68 6.91l0 -6.5 0.39 -0.26 0 6.51 -0.25 0.42 -0.14 -0.17zm0.39 -0.25l0 0.36 -0.25 0.06 0.25 -0.42zm-5.48 1.14l5.34 -1.31 -0.11 0.59 -5.34 1.32 -0.05 0 0.16 -0.6zm-0.16 0.6l-1.14 -0.28 1.3 -0.32 -0.16 0.6zm5.34 1.3l-5.34 -1.3 0.21 -0.6 5.34 1.3 0.09 0.17 -0.3 0.43zm0.21 -0.6l0.09 0.02 0 0.15 -0.09 -0.17zm-0.3 13.73l0 -13.3 0.39 -0.26 0 13.3 -0.28 0.44 -0.11 -0.18zm0.11 0.18l-0.11 0 0 -0.18 0.11 0.18zm1.66 0l-1.66 0 0.17 -0.61 1.66 0 0.11 0.17 -0.28 0.44zm0.17 -0.61l0.11 0 0 0.17 -0.11 -0.17zm-0.28 5.21l0 -4.78 0.39 -0.26 0 4.78 -0.28 0.43 -0.11 -0.17zm0.39 -0.26l0 0.43 -0.28 0 0.28 -0.43zm-8.41 -0.17l8.3 0 -0.17 0.6 -8.29 0 -0.11 -0.17 0.27 -0.43zm-0.16 0.6l-0.11 0 0 -0.17 0.11 0.17zm0.27 -15.32l0 14.89 -0.38 0.26 0 -14.89 0.29 -0.43 0.09 0.17zm-0.09 -0.17l0.09 0.02 0 0.15 -0.09 -0.17zm-3.71 -0.86l3.71 0.86 -0.2 0.6 -3.72 -0.86 -0.09 -0.18 0.3 -0.42zm-0.3 0.42l0 -0.49 0.3 0.07 -0.3 0.42zm0 15.76l0 -15.76 0.39 -0.25 0 15.75 -0.27 0.43 -0.12 -0.17zm0.39 -0.26l0 0.43 -0.27 0 0.27 -0.43zm-8.44 -0.17l8.33 0 -0.16 0.6 -8.33 0 -0.11 -0.17 0.27 -0.43zm-0.16 0.6l-0.11 0 0 -0.17 0.11 0.17zm0.27 -5.21l0 4.78 -0.38 0.26 0 -4.78 0.27 -0.43 0.11 0.17zm-0.38 0.26l0 -0.43 0.27 0 -0.27 0.43zm1.81 0.18l-1.7 0 0.16 -0.61 1.7 0 0.11 0.17 -0.27 0.44zm0.27 -0.44l0 0.44 -0.27 0 0.27 -0.44zm0 -12.59l0 12.59 -0.38 0.26 0 -12.59 0.29 -0.43 0.09 0.17zm-0.09 -0.17l0.09 0.02 0 0.15 -0.09 -0.17zm-1.7 -0.39l1.7 0.39 -0.2 0.6 -1.7 -0.39 -0.09 -0.17 0.29 -0.43zm-0.2 0.6l-0.09 -0.02 0 -0.15 0.09 0.17zm0.29 -5.26l0 4.83 -0.38 0.26 0 -4.83 0.29 -0.43 0.09 0.17zm-0.38 0.26l0 -0.5 0.29 0.07 -0.29 0.43zm1.78 0.57l-1.69 -0.4 0.2 -0.6 1.7 0.4 0.09 0.17 -0.3 0.43zm0.3 -0.43l0 0.5 -0.3 -0.07 0.3 -0.43zm0 -5.41l0 5.41 -0.38 0.26 0 -5.41 0.27 -0.43 0.11 0.17zm-0.11 -0.17l0.11 0 0 0.17 -0.11 -0.17zm-1.7 0l1.7 0 -0.16 0.6 -1.7 0 -0.11 -0.17 0.27 -0.43zm-0.16 0.6l-0.11 0 0 -0.17 0.11 0.17zm0.27 -5.21l0 4.78 -0.38 0.26 0 -4.78 0.27 -0.43 0.11 0.17zm-0.38 0.26l0 -0.43 0.27 0 -0.27 0.43zm8.44 0.18l-8.33 0 0.16 -0.61 8.33 0 0.11 0.17 -0.27 0.44zm0.16 -0.61l0.11 0 0 0.17 -0.11 -0.17zm-0.28 9.82l0 -9.39 0.39 -0.26 0 9.4 -0.25 0.42 -0.14 -0.17zm0.14 0.17l-0.14 0.04 0 -0.21 0.14 0.17zm3.72 -0.9l-3.72 0.9 0.11 -0.6 3.72 -0.9 0.13 0.17 -0.24 0.43zm0.24 -0.43l0 0.37 -0.24 0.06 0.24 -0.43zm0 -9.76l0 9.76 -0.38 0.26 0 -9.76 0.29 -0.43 0.09 0.17zm-0.38 0.26l0 -0.5 0.29 0.07 -0.29 0.43zm8.38 2.2l-8.29 -2.03 0.2 -0.6 8.3 2.03 0.09 0.17 -0.3 0.43zm0.21 -0.6l0.09 0.02 0 0.15 -0.09 -0.17zm-0.3 5.24l0 -4.81 0.39 -0.26 0 4.81 -0.3 0.43 -0.09 -0.17zm0.39 -0.26l0 0.5 -0.3 -0.07 0.3 -0.43zm-1.75 -0.56l1.66 0.39 -0.21 0.6 -1.66 -0.39 -0.09 -0.17 0.3 -0.43zm-0.3 0.43l0 -0.5 0.3 0.07 -0.3 0.43zm-149.98 -0.66l-0.39 0.26 0.28 -0.43 0.23 0 0.23 0 0.23 0 0.23 0 0.24 0 0.23 0 0.23 0 0.23 0 0.23 0 0.23 0 0.24 0 0.23 0 0.23 0 0.23 0 0.23 0 0.23 0 -0.16 0.6 -0.23 0 -0.23 0 -0.23 0 -0.24 0 -0.23 0 -0.23 0 -0.23 0 -0.23 0 -0.23 0 -0.24 0 -0.23 0 -0.23 0 -0.23 0 -0.23 0 -0.23 0 -0.24 0 0.28 -0.43zm-0.39 0.26l0 -0.43 0.28 0 -0.28 0.43zm0 7.02l0 -7.02 0.39 -0.26 0 7.03 -0.3 0.42 -0.09 -0.17zm0.09 0.17l-0.09 -0.02 0 -0.15 0.09 0.17zm2.01 0.48l-2.01 -0.48 0.21 -0.6 2.01 0.48 0.08 0.17 -0.29 0.43zm0.21 -0.6l0.08 0.02 0 0.15 -0.08 -0.17zm-0.3 5.25l0 -4.82 0.38 -0.26 0 4.83 -0.29 0.42 -0.09 -0.17zm0.38 -0.25l0 0.5 -0.29 -0.08 0.29 -0.42zm-2.09 -0.66l2.01 0.49 -0.21 0.59 -2.01 -0.48 -0.09 -0.17 0.3 -0.43zm-0.3 0.43l0 -0.5 0.3 0.07 -0.3 0.43zm0 11.02l0 -11.02 0.39 -0.26 0 11.02 -0.28 0.43 -0.11 -0.17zm0.11 0.17l-0.11 0 0 -0.17 0.11 0.17zm3.71 -0.03l-3.71 0.03 0.17 -0.61 3.7 -0.02 0.11 0.17 -0.27 0.43zm0.27 -0.43l0 0.43 -0.27 0 0.27 -0.43zm0 -22.83l0 22.83 -0.38 0.26 0 -22.83 0.27 -0.43 0.11 0.17zm-0.11 -0.17l0.11 0 0 0.17 -0.11 -0.17zm42.54 5.04l0 -4.61 0.38 -0.26 0 4.62 -0.25 0.42 -0.13 -0.17zm0.13 0.17l-0.13 0.04 0 -0.21 0.13 0.17zm3.72 -0.9l-3.72 0.9 0.11 -0.6 3.72 -0.9 0.14 0.17 -0.25 0.43zm0.25 -0.43l0 0.37 -0.25 0.06 0.25 -0.43zm0 -3.71l0 3.71 -0.39 0.26 0 -3.71 0.28 -0.43 0.11 0.17zm-0.11 -0.17l0.11 0 0 0.17 -0.11 -0.17zm-3.72 0l3.72 0 -0.17 0.6 -3.71 0 -0.11 -0.17 0.27 -0.43zm-0.27 0.43l0 -0.43 0.27 0 -0.27 0.43zm24.63 -0.26l-0.38 0.26 0.27 -0.43 0.23 0 0.24 0 0.23 0 0.23 0 0.23 0 0.23 0 0.23 0 0.24 0 0.23 0 0.23 0 0.23 0 0.23 0 0.23 0 0.24 0 0.23 0 0.23 0 -0.16 0.6 -0.24 0 -0.23 0 -0.23 0 -0.23 0 -0.23 0 -0.23 0 -0.24 0 -0.23 0 -0.23 0 -0.23 0 -0.23 0 -0.23 0 -0.24 0 -0.23 0 -0.23 0 -0.23 0 0.27 -0.43zm-0.38 0.26l0 -0.43 0.27 0 -0.27 0.43zm0 7.02l0 -7.02 0.38 -0.26 0 7.03 -0.29 0.42 -0.09 -0.17zm0.09 0.17l-0.09 -0.02 0 -0.15 0.09 0.17zm2.01 0.48l-2.01 -0.48 0.2 -0.6 2.01 0.48 0.09 0.17 -0.29 0.43zm0.2 -0.6l0.09 0.02 0 0.15 -0.09 -0.17zm-0.29 5.25l0 -4.82 0.38 -0.26 0 4.83 -0.3 0.42 -0.08 -0.17zm0.38 -0.25l0 0.5 -0.3 -0.08 0.3 -0.42zm-2.1 -0.66l2.01 0.49 -0.21 0.59 -2 -0.48 -0.09 -0.17 0.29 -0.43zm-0.29 0.43l0 -0.5 0.29 0.07 -0.29 0.43zm0 11.02l0 -11.02 0.38 -0.26 0 11.02 -0.27 0.43 -0.11 -0.17zm0.11 0.17l-0.11 0 0 -0.17 0.11 0.17zm3.71 -0.03l-3.71 0.03 0.16 -0.61 3.71 -0.02 0.11 0.17 -0.27 0.43zm0.27 -0.43l0 0.43 -0.27 0 0.27 -0.43zm0 -22.83l0 22.83 -0.38 0.26 0 -22.83 0.27 -0.43 0.11 0.17zm-0.11 -0.17l0.11 0 0 0.17 -0.11 -0.17z"/>
   </g>
   <path class="fil2 str0" d="M7.77 40.01l0 4.95 2.41 -4.59 3.56 0.91 3.74 6.44 -1.57 -5.06 0 -2.65 5.13 0 0 11.85 -5.13 0 -4.19 -7.15 -3.95 7.15 -5.13 0 0 -11.85 5.13 0zm27.29 0l0 8.62 5.21 -0.04 0 -4.94 5.14 -1.26 0 9.47 -5.14 0 -5.21 0 -1.62 0 -3.51 0 -1.7 0 0 -3.27 1.7 0 0 -8.58 5.13 0zm33.18 11.85l-17.18 0 0 -3.27 1.7 0 0 -8.58 5.13 0 0 8.62 5.21 -0.04 0 -4.94 5.14 -1.26 0 9.47zm22.35 -11.85l0 10.59 -5.14 1.26c0,0 -4.01,0 -12.04,0l0 -3.27 1.7 0 0 -8.58 5.13 0 0 8.62 5.21 -0.04 0 -8.58 5.14 0zm12.83 0l0 8.62 5.21 -0.04 0 -4.94 5.14 -1.26 0 9.47 -5.14 0 -5.21 0 -1.62 0 -3.51 0 -1.7 0 0 -3.27 1.7 0 0 -8.58 5.13 0zm18.21 11.85l-1.7 0 0 -3.27 1.7 0 0 -8.58 5.13 0 0 11.85 -1.62 0 -3.51 0zm15.48 -11.85l0 8.58 1.66 0 0 3.27 -1.66 0 -3.52 0 -1.62 0 0 -11.85 5.14 0zm24.24 0l0 10.59 -5.13 1.26c0,0 -4.02,0 -12.04,0l0 -3.27 1.7 0 0 -8.58 5.13 0 0 8.62 5.21 -0.04 0 -8.58 5.13 0zm22.74 0l0 8.58 1.7 0 0 3.27 -1.7 0 -3.51 0 -1.61 0 0 -1.3 -5.22 1.3 -5.13 -1.26 0 -10.59 5.13 0 0 8.58 5.22 -1.31 0 -7.27 5.12 0zm12.84 0l0 8.58 5.22 0 0 -4.54 5.12 -1.23 0 9.04 -5.12 0 -5.22 0 -5.13 -1.26 0 -10.59 5.13 0zm33.69 0l0 8.58 1.65 0 0 3.27 -1.65 0 -3.52 0 -1.62 0 0 -11.85 5.14 0zm-10.35 0l0 11.85 -1.62 0 -3.51 0 -1.7 0 0 -3.27 1.7 0 0 -8.58 5.13 0z"/>
  </g>
  <path class="fil3" d="M1.17 11.11l0 -9.76 2.76 0 1.47 4c0.09,0.27 0.18,0.55 0.26,0.84 0.08,0.29 0.16,0.58 0.25,0.87l0.06 0c0.09,-0.29 0.18,-0.58 0.26,-0.87 0.08,-0.29 0.16,-0.57 0.25,-0.84l1.42 -4 2.76 0 0 9.76 -2.34 0 0 -2.88c0,-0.25 0.01,-0.53 0.03,-0.83 0.03,-0.3 0.06,-0.6 0.09,-0.92 0.03,-0.32 0.06,-0.62 0.1,-0.92 0.04,-0.3 0.08,-0.57 0.11,-0.81l-0.06 0 -0.81 2.34 -1.21 3.23 -1.38 0 -1.2 -3.23 -0.78 -2.34 -0.06 0c0.03,0.24 0.07,0.51 0.11,0.81 0.04,0.3 0.07,0.6 0.1,0.92 0.03,0.32 0.06,0.62 0.08,0.92 0.03,0.3 0.04,0.58 0.04,0.83l0 2.88 -2.31 0z"/>
  <path id="_1_0" class="fil3" d="M14.56 11.29c-0.35,0 -0.66,-0.06 -0.94,-0.18 -0.28,-0.13 -0.52,-0.3 -0.72,-0.51 -0.19,-0.21 -0.34,-0.45 -0.44,-0.73 -0.1,-0.28 -0.15,-0.58 -0.15,-0.89 0,-0.78 0.32,-1.39 0.96,-1.84 0.64,-0.44 1.68,-0.74 3.13,-0.89 -0.06,-0.52 -0.41,-0.78 -1.05,-0.78 -0.28,0 -0.56,0.05 -0.86,0.15 -0.3,0.11 -0.65,0.27 -1.04,0.48l-0.9 -1.68c0.53,-0.33 1.07,-0.57 1.61,-0.74 0.54,-0.17 1.1,-0.26 1.7,-0.26 0.97,0 1.73,0.28 2.29,0.84 0.55,0.55 0.83,1.45 0.83,2.68l0 4.17 -2.1 0 -0.18 -0.72 -0.06 0c-0.3,0.27 -0.62,0.49 -0.96,0.66 -0.33,0.16 -0.71,0.24 -1.12,0.24zm0.91 -1.98c0.21,0 0.38,-0.05 0.51,-0.14 0.14,-0.1 0.28,-0.22 0.42,-0.37l0 -1.02c-0.62,0.09 -1.05,0.22 -1.28,0.4 -0.23,0.18 -0.35,0.38 -0.35,0.59 0,0.36 0.23,0.54 0.7,0.54z"/>
  <path id="_2" class="fil3" d="M24.06 11.29c-0.53,0 -1.03,-0.08 -1.49,-0.26 -0.46,-0.17 -0.86,-0.43 -1.2,-0.77 -0.34,-0.33 -0.61,-0.74 -0.81,-1.23 -0.19,-0.49 -0.29,-1.05 -0.29,-1.67 0,-0.62 0.11,-1.18 0.33,-1.67 0.22,-0.49 0.52,-0.9 0.89,-1.24 0.37,-0.33 0.8,-0.59 1.28,-0.76 0.49,-0.18 1,-0.27 1.53,-0.27 0.45,0 0.85,0.07 1.21,0.21 0.36,0.14 0.69,0.33 0.98,0.58l-1.2 1.65c-0.17,-0.14 -0.32,-0.24 -0.45,-0.29 -0.12,-0.05 -0.25,-0.07 -0.39,-0.07 -0.48,0 -0.86,0.16 -1.13,0.5 -0.27,0.34 -0.41,0.79 -0.41,1.36 0,0.57 0.14,1.02 0.42,1.36 0.27,0.33 0.62,0.5 1.03,0.5 0.21,0 0.41,-0.04 0.62,-0.13 0.2,-0.09 0.4,-0.21 0.58,-0.35l0.99 1.68c-0.38,0.33 -0.79,0.56 -1.24,0.69 -0.45,0.12 -0.86,0.18 -1.25,0.18z"/>
  <polygon id="_3" class="fil3" points="29.22,11.11 29.22,5.62 27.12,5.62 27.12,3.6 33.91,3.6 33.91,5.62 31.8,5.62 31.8,11.11 "/>
  <path id="_4" class="fil3" d="M38.35 11.29c-0.55,0 -1.06,-0.08 -1.53,-0.26 -0.47,-0.17 -0.88,-0.43 -1.22,-0.77 -0.35,-0.33 -0.62,-0.74 -0.82,-1.23 -0.2,-0.49 -0.3,-1.05 -0.3,-1.67 0,-0.61 0.1,-1.16 0.31,-1.65 0.2,-0.48 0.47,-0.89 0.81,-1.23 0.33,-0.35 0.71,-0.61 1.15,-0.79 0.43,-0.18 0.87,-0.27 1.33,-0.27 0.55,0 1.03,0.1 1.44,0.29 0.41,0.19 0.75,0.45 1.03,0.78 0.27,0.33 0.47,0.72 0.6,1.16 0.14,0.44 0.21,0.91 0.21,1.41 0,0.23 -0.02,0.44 -0.04,0.64 -0.03,0.2 -0.05,0.35 -0.07,0.44l-4.28 0c0.12,0.45 0.34,0.76 0.65,0.94 0.31,0.17 0.67,0.26 1.09,0.26 0.26,0 0.52,-0.04 0.76,-0.11 0.25,-0.08 0.5,-0.19 0.77,-0.34l0.85 1.53c-0.41,0.29 -0.87,0.51 -1.36,0.66 -0.5,0.14 -0.96,0.21 -1.38,0.21zm-1.41 -4.83l2.22 0c0,-0.29 -0.07,-0.55 -0.21,-0.76 -0.15,-0.22 -0.42,-0.32 -0.81,-0.32 -0.29,0 -0.54,0.08 -0.76,0.25 -0.21,0.17 -0.36,0.45 -0.44,0.83z"/>
  <path id="_5" class="fil3" d="M42.77 13.76l0 -10.16 2.1 0 0.18 0.7 0.06 0c0.28,-0.27 0.6,-0.48 0.95,-0.64 0.35,-0.16 0.71,-0.24 1.09,-0.24 0.44,0 0.84,0.09 1.2,0.27 0.36,0.18 0.67,0.44 0.93,0.77 0.25,0.33 0.45,0.73 0.58,1.2 0.14,0.47 0.21,1 0.21,1.58 0,0.65 -0.09,1.22 -0.27,1.73 -0.17,0.5 -0.4,0.92 -0.69,1.26 -0.3,0.35 -0.63,0.61 -1,0.79 -0.38,0.18 -0.77,0.27 -1.17,0.27 -0.62,0 -1.18,-0.25 -1.68,-0.75l0.09 1.14 0 2.08 -2.58 0zm3.54 -4.57c0.3,0 0.56,-0.14 0.78,-0.42 0.22,-0.28 0.33,-0.78 0.33,-1.5 0,-0.62 -0.08,-1.07 -0.26,-1.34 -0.17,-0.27 -0.44,-0.4 -0.79,-0.4 -0.2,0 -0.38,0.04 -0.53,0.12 -0.16,0.08 -0.32,0.22 -0.49,0.42l0 2.76c0.15,0.14 0.31,0.24 0.47,0.29 0.16,0.05 0.32,0.07 0.49,0.07z"/>
  <path id="_6" class="fil3" d="M54.87 11.29c-0.53,0 -1.02,-0.08 -1.48,-0.26 -0.47,-0.17 -0.87,-0.43 -1.21,-0.77 -0.34,-0.33 -0.6,-0.74 -0.8,-1.23 -0.19,-0.49 -0.29,-1.05 -0.29,-1.67 0,-0.62 0.11,-1.18 0.33,-1.67 0.22,-0.49 0.51,-0.9 0.88,-1.24 0.37,-0.33 0.8,-0.59 1.29,-0.76 0.48,-0.18 0.99,-0.27 1.52,-0.27 0.45,0 0.86,0.07 1.22,0.21 0.36,0.14 0.68,0.33 0.98,0.58l-1.21 1.65c-0.17,-0.14 -0.31,-0.24 -0.44,-0.29 -0.12,-0.05 -0.26,-0.07 -0.4,-0.07 -0.48,0 -0.85,0.16 -1.12,0.5 -0.27,0.34 -0.41,0.79 -0.41,1.36 0,0.57 0.14,1.02 0.41,1.36 0.28,0.33 0.62,0.5 1.03,0.5 0.21,0 0.42,-0.04 0.63,-0.13 0.2,-0.09 0.39,-0.21 0.57,-0.35l1 1.68c-0.39,0.33 -0.8,0.56 -1.24,0.69 -0.45,0.12 -0.87,0.18 -1.26,0.18z"/>
  <path id="_7" class="fil3" d="M58.57 11.11l0 -7.51 2.58 0 0 2.65 0.52 0 0.62 -1.26c0.15,-0.31 0.31,-0.57 0.48,-0.78 0.17,-0.2 0.36,-0.36 0.56,-0.48 0.21,-0.11 0.44,-0.19 0.68,-0.24 0.25,-0.04 0.51,-0.07 0.8,-0.07 0.25,0 0.47,0.04 0.66,0.12l-0.39 2.38c-0.05,-0.02 -0.1,-0.04 -0.15,-0.05 -0.05,-0.01 -0.1,-0.01 -0.15,-0.01 -0.18,0 -0.34,0.03 -0.48,0.11 -0.15,0.07 -0.29,0.26 -0.42,0.55l-0.3 0.66 2.53 3.93 -2.83 0 -1.59 -2.85 -0.54 0 0 2.85 -2.58 0z"/>
  <path id="_8" class="fil3" d="M68.84 11.29c-0.35,0 -0.67,-0.06 -0.95,-0.18 -0.28,-0.13 -0.52,-0.3 -0.71,-0.51 -0.2,-0.21 -0.34,-0.45 -0.44,-0.73 -0.1,-0.28 -0.15,-0.58 -0.15,-0.89 0,-0.78 0.32,-1.39 0.96,-1.84 0.64,-0.44 1.68,-0.74 3.12,-0.89 -0.06,-0.52 -0.41,-0.78 -1.05,-0.78 -0.27,0 -0.56,0.05 -0.86,0.15 -0.3,0.11 -0.64,0.27 -1.03,0.48l-0.9 -1.68c0.53,-0.33 1.06,-0.57 1.6,-0.74 0.54,-0.17 1.11,-0.26 1.7,-0.26 0.97,0 1.73,0.28 2.29,0.84 0.56,0.55 0.83,1.45 0.83,2.68l0 4.17 -2.1 0 -0.18 -0.72 -0.06 0c-0.3,0.27 -0.62,0.49 -0.95,0.66 -0.34,0.16 -0.71,0.24 -1.12,0.24zm0.9 -1.98c0.21,0 0.38,-0.05 0.52,-0.14 0.13,-0.1 0.27,-0.22 0.41,-0.37l0 -1.02c-0.62,0.09 -1.05,0.22 -1.28,0.4 -0.23,0.18 -0.34,0.38 -0.34,0.59 0,0.36 0.23,0.54 0.69,0.54z"/>
  <path id="_9" class="fil3" d="M78.96 11.11l0 -2.25 -0.62 0 -1.29 2.25 -2.87 0 1.91 -2.84c-0.34,-0.21 -0.62,-0.48 -0.83,-0.82 -0.22,-0.34 -0.32,-0.76 -0.32,-1.26 0,-0.49 0.08,-0.9 0.25,-1.23 0.17,-0.33 0.4,-0.6 0.69,-0.8 0.29,-0.2 0.63,-0.34 1.02,-0.43 0.38,-0.08 0.79,-0.13 1.23,-0.13l3.41 0 0 7.51 -2.58 0zm-0.53 -3.98l0.53 0 0 -1.65 -0.53 0c-0.64,0 -0.96,0.26 -0.96,0.78 0,0.25 0.08,0.46 0.24,0.63 0.15,0.16 0.39,0.24 0.72,0.24z"/>
  <path id="_10" class="fil3" d="M86.29 11.11l0 -7.51 2.94 0 0.75 2.23c0.09,0.3 0.18,0.58 0.25,0.84 0.08,0.26 0.15,0.52 0.23,0.78l0.06 0c0.08,-0.26 0.16,-0.52 0.24,-0.78 0.08,-0.26 0.16,-0.54 0.24,-0.84l0.68 -2.23 2.93 0 0 7.51 -2.28 0 0 -1.38c0,-0.21 0.01,-0.47 0.03,-0.78 0.02,-0.31 0.04,-0.63 0.07,-0.95 0.03,-0.33 0.06,-0.65 0.09,-0.96 0.03,-0.31 0.06,-0.57 0.08,-0.79l-0.06 0c-0.11,0.35 -0.24,0.72 -0.38,1.12 -0.14,0.4 -0.26,0.77 -0.37,1.1l-0.67 2.01 -1.35 0 -0.69 -2.01c-0.11,-0.33 -0.23,-0.7 -0.37,-1.11 -0.14,-0.41 -0.27,-0.78 -0.38,-1.11l-0.06 0c0.02,0.22 0.05,0.48 0.08,0.79 0.03,0.31 0.06,0.63 0.09,0.96 0.03,0.32 0.05,0.64 0.07,0.95 0.02,0.31 0.03,0.57 0.03,0.78l0 1.38 -2.25 0z"/>
  <path id="_11" class="fil3" d="M99.83 11.29c-0.55,0 -1.06,-0.08 -1.53,-0.26 -0.47,-0.17 -0.88,-0.43 -1.22,-0.77 -0.35,-0.33 -0.62,-0.74 -0.82,-1.23 -0.2,-0.49 -0.3,-1.05 -0.3,-1.67 0,-0.61 0.1,-1.16 0.31,-1.65 0.2,-0.48 0.47,-0.89 0.81,-1.23 0.33,-0.35 0.72,-0.61 1.15,-0.79 0.43,-0.18 0.87,-0.27 1.33,-0.27 0.56,0 1.04,0.1 1.45,0.29 0.41,0.19 0.75,0.45 1.02,0.78 0.27,0.33 0.47,0.72 0.61,1.16 0.13,0.44 0.2,0.91 0.2,1.41 0,0.23 -0.01,0.44 -0.04,0.64 -0.02,0.2 -0.05,0.35 -0.07,0.44l-4.28 0c0.12,0.45 0.34,0.76 0.65,0.94 0.31,0.17 0.67,0.26 1.1,0.26 0.26,0 0.51,-0.04 0.75,-0.11 0.25,-0.08 0.51,-0.19 0.78,-0.34l0.84 1.53c-0.41,0.29 -0.87,0.51 -1.36,0.66 -0.5,0.14 -0.95,0.21 -1.38,0.21zm-1.41 -4.83l2.23 0c0,-0.29 -0.08,-0.55 -0.22,-0.76 -0.15,-0.22 -0.41,-0.32 -0.81,-0.32 -0.29,0 -0.54,0.08 -0.75,0.25 -0.22,0.17 -0.37,0.45 -0.45,0.83z"/>
  <polygon id="_12" class="fil3" points="105.72,11.11 105.72,5.62 103.62,5.62 103.62,3.6 110.41,3.6 110.41,5.62 108.3,5.62 108.3,11.11 "/>
  <path id="_13" class="fil3" d="M113.32 11.29c-0.35,0 -0.66,-0.06 -0.95,-0.18 -0.28,-0.13 -0.51,-0.3 -0.71,-0.51 -0.19,-0.21 -0.34,-0.45 -0.44,-0.73 -0.1,-0.28 -0.15,-0.58 -0.15,-0.89 0,-0.78 0.32,-1.39 0.96,-1.84 0.64,-0.44 1.68,-0.74 3.12,-0.89 -0.06,-0.52 -0.41,-0.78 -1.05,-0.78 -0.27,0 -0.55,0.05 -0.85,0.15 -0.3,0.11 -0.65,0.27 -1.04,0.48l-0.9 -1.68c0.53,-0.33 1.06,-0.57 1.61,-0.74 0.54,-0.17 1.1,-0.26 1.69,-0.26 0.97,0 1.74,0.28 2.29,0.84 0.56,0.55 0.84,1.45 0.84,2.68l0 4.17 -2.11 0 -0.18 -0.72 -0.06 0c-0.3,0.27 -0.62,0.49 -0.95,0.66 -0.34,0.16 -0.71,0.24 -1.12,0.24zm0.9 -1.98c0.21,0 0.38,-0.05 0.52,-0.14 0.14,-0.1 0.27,-0.22 0.41,-0.37l0 -1.02c-0.62,0.09 -1.04,0.22 -1.27,0.4 -0.23,0.18 -0.35,0.38 -0.35,0.59 0,0.36 0.23,0.54 0.69,0.54z"/>
  <path id="_14" class="fil3" d="M119.58 11.29c-0.35,0 -0.67,-0.06 -0.97,-0.18l0.42 -2.31c0.06,0.02 0.12,0.04 0.18,0.05 0.06,0.01 0.13,0.01 0.21,0.01 0.18,0 0.33,-0.07 0.46,-0.21 0.13,-0.14 0.22,-0.39 0.27,-0.74 0.1,-0.72 0.19,-1.43 0.27,-2.15 0.07,-0.72 0.15,-1.43 0.23,-2.16l5.89 0 0 7.51 -2.59 0 0 -5.49 -1.26 0c-0.06,0.5 -0.12,1 -0.18,1.51 -0.06,0.51 -0.13,1.02 -0.21,1.52 -0.13,0.85 -0.42,1.5 -0.86,1.96 -0.45,0.46 -1.07,0.68 -1.86,0.68z"/>
  <path id="_15" class="fil3" d="M128.44 11.29c-0.35,0 -0.67,-0.06 -0.97,-0.18l0.42 -2.31c0.06,0.02 0.12,0.04 0.18,0.05 0.06,0.01 0.13,0.01 0.21,0.01 0.18,0 0.33,-0.07 0.46,-0.21 0.13,-0.14 0.22,-0.39 0.27,-0.74 0.1,-0.72 0.19,-1.43 0.27,-2.15 0.07,-0.72 0.15,-1.43 0.23,-2.16l5.89 0 0 7.51 -2.59 0 0 -5.49 -1.26 0c-0.06,0.5 -0.12,1 -0.18,1.51 -0.06,0.51 -0.13,1.02 -0.21,1.52 -0.13,0.85 -0.42,1.5 -0.86,1.96 -0.45,0.46 -1.07,0.68 -1.86,0.68z"/>
  <path id="_16" class="fil3" d="M140.47 11.29c-0.48,0 -0.94,-0.08 -1.39,-0.26 -0.45,-0.17 -0.85,-0.43 -1.2,-0.77 -0.34,-0.33 -0.62,-0.74 -0.82,-1.23 -0.21,-0.49 -0.31,-1.05 -0.31,-1.67 0,-0.62 0.1,-1.18 0.31,-1.67 0.2,-0.49 0.48,-0.9 0.82,-1.24 0.35,-0.33 0.75,-0.59 1.2,-0.76 0.45,-0.18 0.91,-0.27 1.39,-0.27 0.48,0 0.95,0.09 1.39,0.27 0.45,0.17 0.84,0.43 1.19,0.76 0.34,0.34 0.62,0.75 0.83,1.24 0.21,0.49 0.32,1.05 0.32,1.67 0,0.62 -0.11,1.18 -0.32,1.67 -0.21,0.49 -0.49,0.9 -0.83,1.23 -0.35,0.34 -0.74,0.6 -1.19,0.77 -0.44,0.18 -0.91,0.26 -1.39,0.26zm0 -2.07c0.39,0 0.67,-0.17 0.84,-0.5 0.16,-0.34 0.24,-0.79 0.24,-1.36 0,-0.57 -0.08,-1.02 -0.24,-1.36 -0.17,-0.34 -0.45,-0.5 -0.84,-0.5 -0.39,0 -0.67,0.16 -0.83,0.5 -0.17,0.34 -0.25,0.79 -0.25,1.36 0,0.57 0.08,1.02 0.25,1.36 0.16,0.33 0.44,0.5 0.83,0.5z"/>
  <path id="_17" class="fil3" d="M145.55 11.11l0 -7.51 2.58 0 0 2.65 0.53 0 0.61 -1.26c0.15,-0.31 0.31,-0.57 0.48,-0.78 0.17,-0.2 0.36,-0.36 0.57,-0.48 0.2,-0.11 0.43,-0.19 0.67,-0.24 0.25,-0.04 0.52,-0.07 0.81,-0.07 0.25,0 0.47,0.04 0.66,0.12l-0.39 2.38c-0.05,-0.02 -0.1,-0.04 -0.15,-0.05 -0.05,-0.01 -0.1,-0.01 -0.15,-0.01 -0.18,0 -0.35,0.03 -0.49,0.11 -0.15,0.07 -0.28,0.26 -0.42,0.55l-0.3 0.66 2.53 3.93 -2.83 0 -1.59 -2.85 -0.54 0 0 2.85 -2.58 0z"/>
  <path id="_18" class="fil3" d="M156.9 11.29c-0.48,0 -0.94,-0.08 -1.39,-0.26 -0.45,-0.17 -0.85,-0.43 -1.2,-0.77 -0.34,-0.33 -0.62,-0.74 -0.82,-1.23 -0.21,-0.49 -0.31,-1.05 -0.31,-1.67 0,-0.62 0.1,-1.18 0.31,-1.67 0.2,-0.49 0.48,-0.9 0.82,-1.24 0.35,-0.33 0.75,-0.59 1.2,-0.76 0.45,-0.18 0.91,-0.27 1.39,-0.27 0.48,0 0.95,0.09 1.39,0.27 0.45,0.17 0.84,0.43 1.19,0.76 0.34,0.34 0.62,0.75 0.83,1.24 0.21,0.49 0.32,1.05 0.32,1.67 0,0.62 -0.11,1.18 -0.32,1.67 -0.21,0.49 -0.49,0.9 -0.83,1.23 -0.35,0.34 -0.74,0.6 -1.19,0.77 -0.44,0.18 -0.91,0.26 -1.39,0.26zm0 -2.07c0.39,0 0.67,-0.17 0.84,-0.5 0.16,-0.34 0.24,-0.79 0.24,-1.36 0,-0.57 -0.08,-1.02 -0.24,-1.36 -0.17,-0.34 -0.45,-0.5 -0.84,-0.5 -0.39,0 -0.67,0.16 -0.83,0.5 -0.17,0.34 -0.25,0.79 -0.25,1.36 0,0.57 0.08,1.02 0.25,1.36 0.16,0.33 0.44,0.5 0.83,0.5z"/>
  <polygon id="_19" class="fil3" points="161.98,11.11 161.98,3.6 164.56,3.6 164.56,6.19 166.51,6.19 166.51,3.6 169.1,3.6 169.1,11.11 166.51,11.11 166.51,8.44 164.56,8.44 164.56,11.11 "/>
  <path id="_20" class="fil3" d="M174.23 11.29c-0.53,0 -1.02,-0.08 -1.48,-0.26 -0.46,-0.17 -0.87,-0.43 -1.21,-0.77 -0.34,-0.33 -0.6,-0.74 -0.8,-1.23 -0.19,-0.49 -0.29,-1.05 -0.29,-1.67 0,-0.62 0.11,-1.18 0.33,-1.67 0.22,-0.49 0.51,-0.9 0.88,-1.24 0.37,-0.33 0.8,-0.59 1.29,-0.76 0.48,-0.18 0.99,-0.27 1.52,-0.27 0.45,0 0.86,0.07 1.22,0.21 0.36,0.14 0.69,0.33 0.98,0.58l-1.21 1.65c-0.17,-0.14 -0.31,-0.24 -0.44,-0.29 -0.12,-0.05 -0.26,-0.07 -0.4,-0.07 -0.48,0 -0.85,0.16 -1.12,0.5 -0.27,0.34 -0.41,0.79 -0.41,1.36 0,0.57 0.14,1.02 0.41,1.36 0.28,0.33 0.62,0.5 1.03,0.5 0.21,0 0.42,-0.04 0.63,-0.13 0.2,-0.09 0.39,-0.21 0.57,-0.35l1 1.68c-0.38,0.33 -0.8,0.56 -1.24,0.69 -0.45,0.12 -0.87,0.18 -1.26,0.18z"/>
  <polygon id="_21" class="fil3" points="179.4,11.11 179.4,5.62 177.3,5.62 177.3,3.6 184.08,3.6 184.08,5.62 181.98,5.62 181.98,11.11 "/>
  <path id="_22" class="fil3" d="M185.35 13.76l0 -10.16 2.1 0 0.18 0.7 0.06 0c0.28,-0.27 0.59,-0.48 0.94,-0.64 0.35,-0.16 0.72,-0.24 1.1,-0.24 0.44,0 0.84,0.09 1.2,0.27 0.36,0.18 0.67,0.44 0.93,0.77 0.25,0.33 0.45,0.73 0.58,1.2 0.14,0.47 0.2,1 0.2,1.58 0,0.65 -0.08,1.22 -0.26,1.73 -0.17,0.5 -0.41,0.92 -0.7,1.26 -0.29,0.35 -0.62,0.61 -1,0.79 -0.37,0.18 -0.76,0.27 -1.16,0.27 -0.62,0 -1.18,-0.25 -1.68,-0.75l0.09 1.14 0 2.08 -2.58 0zm3.54 -4.57c0.3,0 0.56,-0.14 0.78,-0.42 0.22,-0.28 0.33,-0.78 0.33,-1.5 0,-0.62 -0.09,-1.07 -0.26,-1.34 -0.18,-0.27 -0.44,-0.4 -0.79,-0.4 -0.2,0 -0.38,0.04 -0.53,0.12 -0.16,0.08 -0.32,0.22 -0.49,0.42l0 2.76c0.15,0.14 0.3,0.24 0.46,0.29 0.16,0.05 0.33,0.07 0.5,0.07z"/>
  <path id="_23" class="fil3" d="M195.02 13.94c-0.26,0 -0.48,-0.02 -0.64,-0.04 -0.17,-0.03 -0.33,-0.06 -0.5,-0.11l0.45 -1.96c0.07,0.02 0.14,0.04 0.23,0.06 0.08,0.02 0.17,0.03 0.25,0.03 0.35,0 0.61,-0.06 0.78,-0.2 0.18,-0.13 0.31,-0.32 0.39,-0.55l0.09 -0.33 -2.86 -7.24 2.59 0 0.9 2.89c0.11,0.35 0.2,0.7 0.28,1.04 0.08,0.35 0.17,0.71 0.26,1.09l0.06 0c0.08,-0.36 0.16,-0.72 0.23,-1.07 0.08,-0.35 0.16,-0.7 0.25,-1.06l0.75 -2.89 2.46 0 -2.52 7.39c-0.2,0.51 -0.4,0.95 -0.61,1.32 -0.2,0.38 -0.44,0.68 -0.71,0.92 -0.27,0.24 -0.58,0.42 -0.92,0.53 -0.35,0.12 -0.75,0.18 -1.21,0.18z"/>
  <path id="_24" class="fil3" d="M202.05 11.11l0 -7.51 2.58 0 0 2.65 0.52 0 0.62 -1.26c0.15,-0.31 0.31,-0.57 0.48,-0.78 0.17,-0.2 0.36,-0.36 0.56,-0.48 0.21,-0.11 0.43,-0.19 0.68,-0.24 0.24,-0.04 0.51,-0.07 0.8,-0.07 0.25,0 0.47,0.04 0.66,0.12l-0.39 2.38c-0.05,-0.02 -0.1,-0.04 -0.15,-0.05 -0.05,-0.01 -0.1,-0.01 -0.15,-0.01 -0.18,0 -0.34,0.03 -0.49,0.11 -0.14,0.07 -0.28,0.26 -0.41,0.55l-0.3 0.66 2.52 3.93 -2.82 0 -1.59 -2.85 -0.54 0 0 2.85 -2.58 0z"/>
  <polygon id="_25" class="fil3" points="210.52,11.11 210.52,3.6 213.1,3.6 213.1,9.1 214.87,9.1 214.87,3.6 217.45,3.6 217.45,9.1 218.68,9.1 218.68,10.81 218.44,13.7 216.22,13.7 216.22,11.11 "/>
  <path id="_26" class="fil3" d="M219.68 11.11l0 -7.51 2.49 0 0 1.7c0,0.37 -0.02,0.79 -0.07,1.26 -0.04,0.46 -0.09,0.92 -0.14,1.37l0.04 0c0.11,-0.23 0.25,-0.49 0.42,-0.79 0.16,-0.29 0.3,-0.55 0.41,-0.77l1.62 -2.77 2.34 0 0 7.51 -2.49 0 0 -1.69c0,-0.37 0.03,-0.79 0.08,-1.25 0.05,-0.46 0.1,-0.92 0.15,-1.38l-0.06 0c-0.11,0.23 -0.25,0.49 -0.41,0.79 -0.16,0.3 -0.29,0.56 -0.4,0.77l-1.64 2.76 -2.34 0z"/>
  <path id="_27" class="fil3" d="M228.54 11.11l0 -7.51 2.49 0 0 1.7c0,0.37 -0.02,0.79 -0.07,1.26 -0.04,0.46 -0.09,0.92 -0.14,1.37l0.04 0c0.11,-0.23 0.25,-0.49 0.42,-0.79 0.16,-0.29 0.3,-0.55 0.41,-0.77l1.62 -2.77 2.34 0 0 7.51 -2.49 0 0 -1.69c0,-0.37 0.03,-0.79 0.08,-1.25 0.05,-0.46 0.1,-0.92 0.15,-1.38l-0.06 0c-0.11,0.23 -0.25,0.49 -0.41,0.79 -0.16,0.3 -0.29,0.56 -0.4,0.77l-1.64 2.76 -2.34 0zm3.65 -8.59c-0.89,0 -1.55,-0.21 -1.99,-0.65 -0.44,-0.44 -0.67,-1.06 -0.69,-1.87l1.98 0c0.02,0.42 0.08,0.72 0.17,0.9 0.09,0.18 0.27,0.27 0.53,0.27 0.26,0 0.43,-0.09 0.52,-0.27 0.09,-0.18 0.15,-0.48 0.17,-0.9l1.98 0c-0.02,0.81 -0.25,1.43 -0.69,1.87 -0.44,0.44 -1.1,0.65 -1.98,0.65z"/>
 </g>
</svg>
